<?xml version="1.0" standalone="no"?>
<!DOCTYPE svg PUBLIC "-//W3C//DTD SVG 1.1//EN" "http://www.w3.org/Graphics/SVG/1.1/DTD/svg11.dtd" >
<!--
2013-9-30: Created.
-->
<svg>
<metadata>
Created by iconfont
</metadata>
<defs>

<font id="iconfont" horiz-adv-x="1024" >
  <font-face
    font-family="iconfont"
    font-weight="500"
    font-stretch="normal"
    units-per-em="1024"
    ascent="896"
    descent="-128"
  />
    <missing-glyph />
    
    <glyph glyph-name="ace" unicode="&#58883;" d="M382.418468 703.81382c0 0-168.963684-87.412681-212.557915-218.900059-22.197504-78.636179-2.049986-126.5546 18.03347-152.467703 24.023273-31.10213 63.389408-49.616066 105.318027-49.616066 20.339704 0 39.81457 6.246051 56.983202 15.951453l-10.057743-88.95017c-0.672652-4.196065 0.640621-9.385092 3.491382-12.588195 2.7867-3.203103 6.950734-5.957772 11.274923-5.957772l62.460509 0c4.324189 0 8.456192 2.754669 11.274923 5.957772 2.850762 3.203103 4.132003 7.911664 3.491382 12.107729l-9.577278 85.875192c16.592074-7.815571 34.849761-12.524133 52.755107-12.524133 41.896587 0 81.294754 18.610028 105.350058 49.712159 20.051425 25.849041 40.198943 73.863555 18.001439 152.499734C555.193844 616.401139 382.418468 703.81382 382.418468 703.81382zM978.836248 764.544653 768.744721 827.453596 768.744721 831.93794c0 35.362257-28.699803 64.06206-64.06206 64.06206L64.06206 896C28.699803 896 0 867.300197 0 831.93794l0-800.775752c0-35.362257 28.699803-64.06206 64.06206-64.06206l339.88126 0 308.362726-92.377491c33.88883-10.153837 69.603428 9.096813 79.725234 42.985642l229.79061 767.079108C1031.975726 718.676218 1012.693046 754.390816 978.836248 764.544653zM64.06206 831.93794l640.620601 0 0-800.775752L64.06206 31.162188 64.06206 831.93794z"  horiz-adv-x="1025" />

    
    <glyph glyph-name="shang" unicode="&#58942;" d="M930.205696 340.122368l-309.248 0L620.957696-212 391.170048-212 391.170048 340.122368 92.16 340.122368 511.184896 810.323712 930.205696 340.122368z"  horiz-adv-x="1024" />

    
    <glyph glyph-name="yonghuming" unicode="&#59393;" d="M632.618667 318.762667c105.728 46.570667 179.84 152.192 179.84 274.965333 0 165.674667-134.784 300.437333-300.458667 300.437333S211.562667 759.402667 211.562667 593.728c0-122.752 74.090667-228.394667 179.818667-274.965333C206.826667 266.133333 71.189333 96.384 71.189333-104.832c0-11.797333 9.557333-21.333333 21.333333-21.333333s21.333333 9.536 21.333333 21.333333c0 219.52 178.602667 398.122667 398.144 398.122667s398.144-178.602667 398.144-398.122667c0-11.797333 9.536-21.333333 21.333333-21.333333s21.333333 9.536 21.333333 21.333333C952.810667 96.384 817.173333 266.133333 632.618667 318.762667zM254.229333 593.728c0 142.144 115.626667 257.770667 257.770667 257.770667 142.144 0 257.792-115.626667 257.792-257.770667S654.144 335.957333 512 335.957333C369.856 335.957333 254.229333 451.584 254.229333 593.728z"  horiz-adv-x="1024" />

    
    <glyph glyph-name="jiaoyijilu" unicode="&#58894;" d="M372.40415 453.49784l-247.496837 0c-39.21821 0-52.147684 21.028942-55.899124 30.066783s-9.463536 33.023114 18.273179 60.758806l79.913051 79.913051c11.367909 11.381212 29.782304 11.381212 41.150212 0 11.366885-11.366885 11.366885-29.782304 0-41.150212l-71.387887-71.387887 235.447407 0c16.08535 0 29.100782-13.015432 29.100782-29.100782C401.504932 466.514295 388.4895 453.49784 372.40415 453.49784zM539.845697 111.509932c-7.444553 0-14.891152 2.841721-20.573571 8.525164-11.367909 11.366885-11.367909 29.782304 0 41.150212l71.415516 71.387887L94.925465 232.573195c-16.08535 0-29.100782 13.015432-29.100782 29.100782 0 16.084327 13.015432 29.100782 29.100782 29.100782l507.811608 0c39.216163 0 52.147684-21.030989 55.899124-30.067806s9.463536-33.022091-18.274202-60.758806l-79.939657-79.913051C554.737872 114.351654 547.291273 111.509932 539.845697 111.509932zM712.346469 335.448214c-134.533043 0-243.973594 109.467157-243.973594 244.001223 0 134.576021 109.440551 244.043179 243.973594 244.043179 134.561695 0 244.030899-109.468181 244.030899-244.043179C956.377368 444.915371 846.908164 335.448214 712.346469 335.448214zM712.346469 765.292076c-102.4483 0-185.772031-83.35136-185.772031-185.842639 0-102.421694 83.323731-185.800683 185.772031-185.800683 102.476953 0 185.830359 83.378989 185.830359 185.800683C898.176828 681.940716 814.823422 765.292076 712.346469 765.292076zM842.27668 549.212786 708.707592 549.212786c-16.083304 0-29.100782 13.014408-29.100782 29.100782L679.606811 684.95333c0 16.084327 13.017478 29.100782 29.100782 29.100782 16.086373 0 29.100782-13.016455 29.100782-29.100782l0-77.538981L842.27668 607.414349c16.084327 0 29.100782-13.016455 29.100782-29.100782C871.376439 562.227194 858.361007 549.212786 842.27668 549.212786z"  horiz-adv-x="1024" />

    
    <glyph glyph-name="iconset0273" unicode="&#59052;" d="M853.333333 576 853.333333 789.333333c0 36.266667-27.733333 64-64 64-36.266667 0-64-27.733333-64-64l0-17.066667-326.4-98.133333L85.333333 640c-23.466667 0-42.666667-19.2-42.666667-42.666667l0-298.666667c0-23.466667 19.2-42.666667 42.666667-42.666667l145.066667-17.066667L298.666667-68.266667l0 0c2.133333-8.533333 10.666667-17.066667 21.333333-17.066667l170.666667 0c12.8 0 21.333333 8.533333 21.333333 21.333333 0 2.133333 0 2.133333 0 4.266667l0 0-59.733333 264.533333L725.333333 123.733333 725.333333 106.666667c0-36.266667 27.733333-64 64-64 36.266667 0 64 27.733333 64 64L853.333333 320c70.4 0 128 57.6 128 128S923.733333 576 853.333333 576zM85.333333 298.666667l0 85.333333 106.666667 0c12.8 0 21.333333 8.533333 21.333333 21.333333s-8.533333 21.333333-21.333333 21.333333L85.333333 426.666667l0 42.666667 64 0c12.8 0 21.333333 8.533333 21.333333 21.333333 0 12.8-8.533333 21.333333-21.333333 21.333333L85.333333 512l0 85.333333 298.666667 34.133333 0-364.8L85.333333 298.666667zM317.866667 42.666667l-42.666667 192 121.6-12.8 8.533333-2.133333 38.4-177.066667L317.866667 42.666667zM454.4 0l8.533333-42.666667-128 0-8.533333 42.666667L454.4 0zM725.333333 168.533333l-298.666667 89.6L426.666667 637.866667l298.666667 89.6L725.333333 168.533333zM810.666667 106.666667c0-12.8-8.533333-21.333333-21.333333-21.333333s-21.333333 8.533333-21.333333 21.333333L768 789.333333c0 12.8 8.533333 21.333333 21.333333 21.333333s21.333333-8.533333 21.333333-21.333333L810.666667 106.666667zM853.333333 362.666667l0 170.666667c46.933333 0 85.333333-38.4 85.333333-85.333333S900.266667 362.666667 853.333333 362.666667z"  horiz-adv-x="1024" />

    
    <glyph glyph-name="iconset0280" unicode="&#59059;" d="M170.666667 213.333333c12.8 0 21.333333 8.533333 21.333333 21.333333l0 149.333333 298.666667 0 0-149.333333c0-12.8 8.533333-21.333333 21.333333-21.333333s21.333333 8.533333 21.333333 21.333333l0 149.333333 298.666667 0 0-149.333333c0-12.8 8.533333-21.333333 21.333333-21.333333 12.8 0 21.333333 8.533333 21.333333 21.333333l0 170.666667c0 12.8-8.533333 21.333333-21.333333 21.333333L533.333333 426.666667l0 106.666667c0 12.8-8.533333 21.333333-21.333333 21.333333s-21.333333-8.533333-21.333333-21.333333l0-106.666667L170.666667 426.666667c-12.8 0-21.333333-8.533333-21.333333-21.333333l0-170.666667C149.333333 221.866667 157.866667 213.333333 170.666667 213.333333zM469.333333 597.333333l85.333333 0c46.933333 0 85.333333 38.4 85.333333 85.333333L640 768c0 46.933333-38.4 85.333333-85.333333 85.333333l-85.333333 0c-46.933333 0-85.333333-38.4-85.333333-85.333333l0-85.333333C384 635.733333 422.4 597.333333 469.333333 597.333333zM426.666667 768c0 23.466667 19.2 42.666667 42.666667 42.666667l85.333333 0c23.466667 0 42.666667-19.2 42.666667-42.666667l0-85.333333c0-23.466667-19.2-42.666667-42.666667-42.666667l-85.333333 0c-23.466667 0-42.666667 19.2-42.666667 42.666667L426.666667 768zM554.666667 170.666667l-85.333333 0c-46.933333 0-85.333333-38.4-85.333333-85.333333l0-85.333333c0-46.933333 38.4-85.333333 85.333333-85.333333l85.333333 0c46.933333 0 85.333333 38.4 85.333333 85.333333l0 85.333333C640 132.266667 601.6 170.666667 554.666667 170.666667zM597.333333 0c0-23.466667-19.2-42.666667-42.666667-42.666667l-85.333333 0c-23.466667 0-42.666667 19.2-42.666667 42.666667l0 85.333333c0 23.466667 19.2 42.666667 42.666667 42.666667l85.333333 0c23.466667 0 42.666667-19.2 42.666667-42.666667L597.333333 0zM896 170.666667l-85.333333 0c-46.933333 0-85.333333-38.4-85.333333-85.333333l0-85.333333c0-46.933333 38.4-85.333333 85.333333-85.333333l85.333333 0c46.933333 0 85.333333 38.4 85.333333 85.333333l0 85.333333C981.333333 132.266667 942.933333 170.666667 896 170.666667zM938.666667 0c0-23.466667-19.2-42.666667-42.666667-42.666667l-85.333333 0c-23.466667 0-42.666667 19.2-42.666667 42.666667l0 85.333333c0 23.466667 19.2 42.666667 42.666667 42.666667l85.333333 0c23.466667 0 42.666667-19.2 42.666667-42.666667L938.666667 0zM213.333333 170.666667 128 170.666667c-46.933333 0-85.333333-38.4-85.333333-85.333333l0-85.333333c0-46.933333 38.4-85.333333 85.333333-85.333333l85.333333 0c46.933333 0 85.333333 38.4 85.333333 85.333333l0 85.333333C298.666667 132.266667 260.266667 170.666667 213.333333 170.666667zM256 0c0-23.466667-19.2-42.666667-42.666667-42.666667L128-42.666667c-23.466667 0-42.666667 19.2-42.666667 42.666667l0 85.333333c0 23.466667 19.2 42.666667 42.666667 42.666667l85.333333 0c23.466667 0 42.666667-19.2 42.666667-42.666667L256 0z"  horiz-adv-x="1024" />

    
    <glyph glyph-name="iconset0432" unicode="&#59191;" d="M761.6 292.266667l-234.666667 213.333333 0 0C522.666667 509.866667 518.4 512 512 512s-10.666667-2.133333-14.933333-6.4l0 0-234.666667-213.333333 0 0C258.133333 290.133333 256 283.733333 256 277.333333c0-12.8 8.533333-21.333333 21.333333-21.333333 6.4 0 10.666667 2.133333 14.933333 6.4l0 0L512 460.8l219.733333-200.533333 0 0c4.266667-4.266667 8.533333-6.4 14.933333-6.4 12.8 0 21.333333 8.533333 21.333333 21.333333C768 283.733333 765.866667 290.133333 761.6 292.266667L761.6 292.266667zM896 853.333333 128 853.333333C81.066667 853.333333 42.666667 814.933333 42.666667 768l0-768c0-46.933333 38.4-85.333333 85.333333-85.333333l768 0c46.933333 0 85.333333 38.4 85.333333 85.333333L981.333333 768C981.333333 814.933333 942.933333 853.333333 896 853.333333zM938.666667 0c0-23.466667-19.2-42.666667-42.666667-42.666667L128-42.666667c-23.466667 0-42.666667 19.2-42.666667 42.666667L85.333333 768c0 23.466667 19.2 42.666667 42.666667 42.666667l768 0c23.466667 0 42.666667-19.2 42.666667-42.666667L938.666667 0z"  horiz-adv-x="1024" />

    
    <glyph glyph-name="48" unicode="&#58924;" d="M512 96c-6.4 0-19.2 6.4-25.6 12.8L249.6 396.8C236.8 403.2 236.8 422.4 243.2 428.8l70.4 134.4C320 576 326.4 582.4 339.2 582.4l345.6 0c12.8 0 25.6-6.4 25.6-19.2l70.4-134.4c6.4-12.8 6.4-25.6-6.4-32l-243.2-288C531.2 102.4 518.4 96 512 96zM307.2 422.4 512 179.2l204.8 243.2-51.2 96L358.4 518.4 307.2 422.4zM512-128c-281.6 0-512 230.4-512 512s230.4 512 512 512 512-230.4 512-512c0-19.2-12.8-32-32-32S960 364.8 960 384c0 249.6-198.4 448-448 448S64 633.6 64 384s198.4-448 448-448c19.2 0 32-12.8 32-32S531.2-128 512-128zM992 32l-320 0c-19.2 0-32 12.8-32 32s12.8 32 32 32l320 0c19.2 0 32-12.8 32-32S1011.2 32 992 32zM832-128c-19.2 0-32 12.8-32 32l0 320c0 19.2 12.8 32 32 32s32-12.8 32-32l0-320C864-115.2 851.2-128 832-128z"  horiz-adv-x="1024" />

    
    <glyph glyph-name="bangzhu" unicode="&#59116;" d="M480 896C215.04 896 0 680.96 0 416 0 151.04 215.04-64 480-64S960 151.04 960 416C960 680.96 744.96 896 480 896zM480 0C250.24 0 64 186.24 64 416 64 645.76 250.24 832 480 832 709.76 832 896 645.76 896 416 896 186.24 709.76 0 480 0zM480 704C391.68 704 320 632.32 320 544 320 526.08 334.08 512 352 512 369.92 512 384 526.08 384 544 384 597.12 426.88 640 480 640 533.12 640 576 597.12 576 544 576 490.88 533.12 448 480 448 462.08 448 448 433.92 448 416l0-128C448 270.08 462.08 256 480 256 497.92 256 512 270.08 512 288L512 387.2c72.96 14.72 128 79.36 128 156.8C640 632.32 568.32 704 480 704zM480 192C462.08 192 448 177.92 448 160 448 142.08 462.08 128 480 128 497.92 128 512 142.08 512 160 512 177.92 497.92 192 480 192z"  horiz-adv-x="1024" />

    
    <glyph glyph-name="zhuanzhang" unicode="&#59038;" d="M894.780952 847.238095C938.666667 847.238095 975.238095 810.666667 975.238095 766.780952l0-765.561905c0-43.885714-36.571429-80.457143-80.457143-80.457143L129.219048-79.238095C85.333333-79.238095 48.761905-42.666667 48.761905 1.219048L48.761905 766.780952C48.761905 810.666667 85.333333 847.238095 129.219048 847.238095L894.780952 847.238095M894.780952 896 129.219048 896C58.514286 896 0 837.485714 0 766.780952l0-765.561905C0-69.485714 58.514286-128 129.219048-128l765.561905 0c70.704762 0 129.219048 58.514286 129.219048 129.219048L1024 766.780952C1021.561905 837.485714 963.047619 896 894.780952 896L894.780952 896zM748.495238 510.780952 351.085714 510.780952l90.209524 90.209524c7.314286 7.314286 7.314286 17.066667 0 21.942857l-21.942857 21.942857c-2.438095 7.314286-17.066667 7.314286-21.942857 0l-134.095238-134.095238c-2.438095-2.438095-4.87619-4.87619-4.87619-9.752381-2.438095-2.438095-2.438095-4.87619-2.438095-7.314286l0-31.695238c0-9.752381 7.314286-17.066667 17.066667-17.066667l480.304762 0c9.752381 0 17.066667 7.314286 17.066667 17.066667l0 31.695238C765.561905 505.904762 758.247619 510.780952 748.495238 510.780952zM753.371429 384 273.066667 384c-9.752381 0-17.066667-7.314286-17.066667-12.190476l0-31.695238c0-9.752381 0-19.504762 31.695238-19.504762l375.466667 0-80.457143-78.019048c-7.314286-7.314286-7.314286-17.066667 0-21.942857l21.942857-21.942857c7.314286-7.314286 17.066667-7.314286 21.942857 0l131.657143 124.342857c9.752381 4.87619 9.752381 12.190476 9.752381 14.628571l0 31.695238C765.561905 376.685714 758.247619 384 753.371429 384z"  horiz-adv-x="1024" />

    
    <glyph glyph-name="mai" unicode="&#58978;" d="M511.432344 157.474253c-8.917361 0-17.819241 1.976475-26.143144 5.903623L11.363443 387.694925l17.034844 35.777816 473.941239-224.317049c5.805574-2.766033 12.426508-2.72991 18.2166 0l473.95672 224.317049 17.029683-35.777816-473.946399-224.322209C529.287709 159.445568 520.370347 157.474253 511.432344 157.474253L511.432344 157.474253zM511.432344-113.999536c-8.891559 0-17.819241 1.960994-26.122502 5.882981L34.838603 105.120879C13.675352 115.101305 0 136.661916 0 160.028705L0 379.690974c0 23.330666 13.654709 44.875795 34.823122 54.902666l183.997984 87.078446c9.887537 4.680583 21.746389 0.51089 26.452774-9.392128 4.716706-9.887537 0.485088-21.694784-9.423091-26.380527L51.873447 398.815824c-7.374369-3.493665-12.147841-11.002207-12.147841-19.12485l0-219.662269c0-8.138124 4.747669-15.646666 12.101396-19.109369l450.507363-213.252915c5.784932-2.709268 12.426508-2.709268 18.206279 0l450.486721 213.237434c7.379529 3.478184 12.127199 10.986726 12.127199 19.12485L983.154563 379.690974c0 8.122643-4.768311 15.631185-12.147841 19.135171l-183.972182 87.068125c-9.908179 4.690904-14.134637 16.49815-9.423091 26.380527 4.706385 9.882377 16.601361 14.077871 26.457935 9.392128l183.997984-87.078446c21.168412-10.026871 34.817961-31.577161 34.817961-54.902666l0-219.662269c0-23.361629-13.675352-44.9274-34.843764-54.928468l-450.466079-213.216792C529.272227-112.038543 520.344545-113.999536 511.432344-113.999536L511.432344-113.999536zM511.540715 410.881097c-10.981565 0-19.867964 8.870917-19.867964 19.806037L491.672751 854.122461c0 10.935121 8.886398 19.800877 19.867964 19.800877 10.976405 0 19.857642-8.865756 19.857642-19.800877l0-423.435327C531.403518 419.752013 522.52228 410.881097 511.540715 410.881097L511.540715 410.881097zM511.638764 404.074384c-5.088263 0-10.161044 1.930031-14.041748 5.805574-7.761407 7.730444-7.761407 20.265323 0 28.000927l142.16173 141.738568c7.756247 7.735604 20.316928 7.735604 28.088656 0 7.751086-7.730444 7.751086-20.265323 0-28.000927L525.680512 409.879958C521.799808 406.004415 516.711546 404.074384 511.638764 404.074384L511.638764 404.074384zM511.638764 404.074384c-5.088263 0-10.161044 1.930031-14.041748 5.805574L353.417528 553.641445c-7.756247 7.730444-7.756247 20.270483 0 28.006088 7.751086 7.735604 20.322088 7.735604 28.083495 0l144.174328-143.761488c7.756247-7.740765 7.756247-20.270483 0-28.000927C521.799808 406.004415 516.711546 404.074384 511.638764 404.074384L511.638764 404.074384z"  horiz-adv-x="1024" />

    
    <glyph glyph-name="mai1" unicode="&#58979;" d="M511.432344 157.474253c-8.917361 0-17.819241 1.976475-26.143144 5.903623L11.363443 387.694925l17.034844 35.777816 473.941239-224.317049c5.805574-2.766033 12.426508-2.72991 18.2166 0l473.95672 224.317049 17.029683-35.777816-473.946399-224.322209C529.287709 159.445568 520.370347 157.474253 511.432344 157.474253L511.432344 157.474253zM511.432344-113.999536c-8.891559 0-17.819241 1.960994-26.122502 5.882981L34.838603 105.120879C13.675352 115.101305 0 136.661916 0 160.028705L0 379.690974c0 23.330666 13.654709 44.875795 34.823122 54.902666l183.997984 87.078446c9.887537 4.680583 21.746389 0.51089 26.452774-9.392128 4.716706-9.887537 0.485088-21.694784-9.423091-26.380527L51.873447 398.815824c-7.374369-3.493665-12.147841-11.002207-12.147841-19.12485l0-219.662269c0-8.138124 4.747669-15.646666 12.101396-19.109369l450.507363-213.252915c5.784932-2.709268 12.426508-2.709268 18.206279 0l450.486721 213.237434c7.379529 3.478184 12.127199 10.986726 12.127199 19.12485L983.154563 379.690974c0 8.122643-4.768311 15.631185-12.147841 19.135171l-183.972182 87.068125c-9.908179 4.690904-14.134637 16.49815-9.423091 26.380527 4.706385 9.882377 16.601361 14.077871 26.457935 9.392128l183.997984-87.078446c21.168412-10.026871 34.817961-31.577161 34.817961-54.902666l0-219.662269c0-23.361629-13.675352-44.9274-34.843764-54.928468l-450.466079-213.216792C529.272227-112.038543 520.344545-113.999536 511.432344-113.999536L511.432344-113.999536zM509.713894 867.121786c10.981565 0 19.867964-8.870917 19.867964-19.806037l0-423.435327c0-10.935121-8.886398-19.800877-19.867964-19.800877-10.976405 0-19.857642 8.865756-19.857642 19.800877L489.856252 847.315749C489.856252 858.25603 498.737489 867.121786 509.713894 867.121786L509.713894 867.121786zM509.615844 873.928499c5.088263 0 10.161044-1.930031 14.041748-5.805574 7.761407-7.730444 7.761407-20.265323 0-28.000927L381.501023 698.38343c-7.756247-7.735604-20.316928-7.735604-28.088656 0-7.751086 7.730444-7.751086 20.265323 0 28.000927L495.574097 868.122925C499.4548 871.998468 504.548224 873.928499 509.615844 873.928499L509.615844 873.928499zM509.615844 873.928499c5.088263 0 10.161044-1.930031 14.041748-5.805574l144.174328-143.761488c7.761407-7.730444 7.761407-20.270483 0-28.006088-7.751086-7.735604-20.322088-7.735604-28.083495 0L495.574097 840.121998c-7.756247 7.740765-7.756247 20.270483 0 28.000927C499.4548 871.998468 504.548224 873.928499 509.615844 873.928499L509.615844 873.928499z"  horiz-adv-x="1024" />

    
    <glyph glyph-name="zimur" unicode="&#58931;" d="M280.6813083 834l207.30852862 0c151.68325253 0 227.52487792-88.07191084 227.52487792-264.18108691 0-52.26454688-8.21126778-97.11469951-24.65112656-134.61975264-16.42253555-37.50505224-45.30056045-67.63035849-86.58210322-90.39324024l139.03720664-410.80592109-136.50799746 0-120.08546192 384.26654883L409.61900146 318.26654883000003l0-384.26654883L280.6813083-66 280.6813083 834zM409.61900146 432.04631104l73.29509385 0c22.74555849 0 40.86578232 3.17017266 54.36067237 9.47587235 13.46024268 6.32302295 23.80228242 15.38313487 30.97414951 27.18033575 7.1372206 11.79720088 12.00508154 26.3314916 14.53429072 43.60287217 2.52920917 17.27137969 3.79381377 37.29717246 3.79381376 60.0600542s-1.24728135 42.75402803-3.79381376 60.04273095c-2.52920917 17.25405644-7.79550732 32.01355107-15.79889531 44.24383565-8.02071123 12.19563809-19.17694864 21.27307412-33.50335869 27.1630125-14.34373417 5.88993926-33.29547891 8.85223213-56.87255831 8.85223213L409.61900146 712.66725674 409.61900146 432.04631104z"  horiz-adv-x="1024" />

    
    <glyph glyph-name="zimus" unicode="&#58932;" d="M729.49276074 571.76188037l-126.75864375 0 0 28.59819434c0 28.98995097-6.83018261 54.06233994-20.5075793 75.18310312s-36.65474385 31.68114433-68.98313759 31.68114434c-17.39056377 0-31.68114433-3.30437724-42.87174258-9.93016495C459.18105927 690.63430401 450.47726123 682.1519332 444.27729482 671.8129793c-6.21699873-10.37302031-10.56038115-22.3641624-13.06421367-36.04155996-2.48679932-13.67739756-3.73019942-27.96797812-3.73019941-42.88877491 0-17.39056377 0.61318301-32.12399971 1.8565831-44.1151418 1.2434001-12.02520849 4.36041562-22.3641624 9.31698194-31.06796132 4.97359864-8.70379805 12.22960342-16.3685918 21.75097939-22.99437949 9.52137597-6.65985322 22.56855732-13.26860859 39.15857637-19.8943963l96.93408252-38.52836015c28.13830664-10.78180928 50.94532441-23.42020078 68.35292139-37.91517626 17.39056377-14.51200781 30.86356641-31.51081582 40.38494326-50.96235763 9.52137597-19.48560732 15.95980283-41.8327374 19.2812124-67.09248808 3.28734492-25.27678388 4.95656631-54.07937315 4.95656631-86.37370137 0-37.28496006-3.73019942-71.89575908-11.17356504-103.78129834-7.46039883-31.90257158-19.69000136-59.2573667-36.65474385-82.03031895-16.998808-22.78998458-39.58439766-40.81076455-67.7397375-54.06233993-28.17237305-13.23454307-62.57877715-19.87736309-103.16811445-19.87736309-30.65917237 0-59.2573667 5.3823876-85.76051748 16.14716367s-49.31016855 25.48117881-68.35292138 44.132175c-19.05978516 18.63396387-34.18497685 40.79373223-45.3585419 66.47930508C300.09402177 86.61454599000001 294.50723926 114.3951624 294.50723926 144.21972363999998l0 47.215125 126.75864375 0 0-39.77175938c0-23.19877354 6.83018261-44.1151418 20.5075793-62.76613887s36.65474385-27.96797812 68.98313759-27.96797812c21.54658447 0 38.30693203 3.11701552 50.33214141 9.31698193 12.00817617 6.21699873 21.12076318 14.92079677 27.33776191 26.09436182 6.21699873 11.19059824 10.13455987 25.05535664 11.80378125 41.62834247 1.65218906 16.57298584 2.48679932 34.81519307 2.48679932 54.69255704 0 23.18174033-0.83461113 42.24152637-2.48679932 57.16232314-1.68625459 14.92079677-5.19502675 26.91193974-10.56038115 36.04155997-5.3994208 9.09555469-12.85981963 16.57298584-22.3641624 22.3641624-9.55544238 5.79117656-22.19383388 11.99114297-37.91517627 18.65099619l-90.73411699 37.26792685c-54.67552383 22.3641624-91.33026768 51.98432959-109.98126387 88.86050069-18.65099619 36.85913789-27.96797812 83.06932412-27.96797812 138.5964914 0 33.11190615 4.54777734 64.62272197 13.67739755 94.44728321 9.09555469 29.82456123 22.55152412 55.51013497 40.38494326 77.05671943C372.58593066 784.67279824 395.17152119 801.87600029 422.52631542 814.7187876S481.74961661 834 518.21699873 834c31.49378261 0 60.27933955-5.82524297 86.37370137-17.40759698 26.09436182-11.61641953 48.47555742-26.92897295 67.10952128-45.97172578 18.65099619-19.07681836 32.94157763-40.38494326 42.88877491-64.00953808s14.90376445-47.86237442 14.90376446-72.71333702L729.49276074 571.76188037z"  horiz-adv-x="1024" />

    
    <glyph glyph-name="zimue" unicode="&#58936;" d="M319.85436552 834l384.29126896 0-1e-8-121.35240263L448.79454072 712.64759737l0-264.18617227 222.47074248 0 0-121.35240263L448.79454072 327.10902334l0-264.18617227 255.33376963 0 0-128.92285195L319.85436552-66 319.85436552 834z"  horiz-adv-x="1024" />

    
    <glyph glyph-name="nowifi" unicode="&#59174;" d="M459.028555 105.355769c0-14.305821 5.89322-28.52466 16.006556-38.639019 10.113335-10.113335 24.333198-16.002462 38.639019-16.002462 14.301727 0 28.520567 5.889127 38.634926 16.002462 10.117428 10.114358 16.005532 24.333198 16.005532 38.639019s-5.888104 28.52159-16.005532 38.634926c-10.114358 10.117428-24.333198 16.006556-38.634926 16.006556-14.305821 0-28.525684-5.889127-38.639019-16.006556C464.921775 133.876336 459.028555 119.661589 459.028555 105.355769L459.028555 105.355769zM459.028555 105.355769M263.264962 575.868889c-49.52802-22.827915-93.91188-51.732222-129.763412-84.936461-9.8176-9.338692-15.980973-22.549575-15.980973-37.238113 0-28.291346 22.73991-51.227732 50.789757-51.227732 16.406668 0 30.18344 10.076496 40.243563 20.060895 35.226293 27.990494 73.701582 50.78157 114.482381 67.983347L263.264962 575.868889 263.264962 575.868889zM263.264962 575.868889M895.554606 489.244996c-100.955296 89.419566-235.9652 142.0349-381.880477 142.0349-20.6319 0-41.247426-1.182942-61.70434-3.387144l69.426209-99.147114c109.210307-1.679245 212.662471-38.892799 297.360502-106.168018 11.889795-11.310603 23.849174-20.111037 40.280402-20.111037 28.049846 0 50.786687 22.936385 50.786687 51.227732C909.822564 467.513042 904.371412 480.031147 895.554606 489.244996L895.554606 489.244996zM895.554606 489.244996M561.446156 471.546915l90.962711-129.896442c21.677719-9.867742 42.180681-21.919219 61.153802-35.963073 10.939143-8.792247 22.556739-15.918551 37.121456-15.918551 28.049846 0 50.789757 22.936385 50.789757 51.227732 0 14.68956-6.163373 27.89942-15.980973 37.238113C722.313983 428.528146 645.612067 462.2072 561.446156 471.546915L561.446156 471.546915zM561.446156 471.546915M355.001293 444.854996c-42.671868-16.196891-81.08883-38.429241-111.376647-64.995293-10.856255-9.392928-17.757432-23.303752-17.757432-38.864146 0-28.291346 22.740934-51.227732 50.79078-51.227732 15.423271 0 34.362622 13.106506 39.080064 17.35732 30.18344 22.011316 64.108087 39.08518 100.587929 50.157353L355.001293 444.854996 355.001293 444.854996zM355.001293 444.854996M516.269233 214.553797l-66.525136 94.999654c-38.121226-8.766664-73.034387-24.561395-92.707448-44.080961-7.860015-9.017374-12.661368-20.810978-12.661368-33.757848 0-28.291346 22.740934-51.227732 50.79078-51.227732 13.009292 0 24.490787 7.130398 33.825386 13.093203 25.337061 13.419637 54.131875 21.057595 84.682681 21.057595C514.543939 214.637708 515.3984 214.566076 516.269233 214.553797L516.269233 214.553797zM516.269233 214.553797M362.257557 684.562427c-16.22759 23.172769-48.169069 28.808116-71.346955 12.580526-23.172769-16.22759-28.808116-48.170093-12.576433-71.342862l352.60164-503.551584c16.22759-23.174815 48.169069-28.808116 71.346955-12.580526 23.172769 16.22759 28.808116 48.170093 12.580526 71.342862L362.257557 684.562427 362.257557 684.562427zM362.257557 684.562427"  horiz-adv-x="1024" />

    
    <glyph glyph-name="tongxunlu" unicode="&#58938;" d="M116.948 552.151h115.494c13.867 0 25.149 11.7 25.149 26.078 0 14.382-11.282 26.083-25.149 26.083h-115.494c-13.868 0-25.151-11.702-25.151-26.083 0-14.377 11.282-26.078 25.151-26.078zM116.948 364.792h115.494c13.867 0 25.149 11.699 25.149 26.079 0 6.966-2.616 13.515-7.366 18.44-4.75 4.925-11.066 7.64-17.783 7.64h-115.494c-13.868 0-25.151-11.7-25.151-26.080s11.282-26.079 25.151-26.079zM257.591 204.2c0 6.97-2.616 13.521-7.367 18.445-4.749 4.926-11.065 7.641-17.782 7.641h-115.494c-13.868 0-25.151-11.703-25.151-26.086 0-14.377 11.283-26.074 25.151-26.074h115.494c13.867-0.001 25.149 11.695 25.149 26.074zM338.176 177.735l-3.395-8.242h56.054l1.681 3.171c26.273 49.515 88.029 85.745 150.143 88.106h6.066c2.289 0 4.563 0 6.782-0.005 62.145-2.361 123.901-38.588 150.178-88.101l1.681-3.171h56.057l-3.396 8.242c-10.207 24.774-28.017 49.005-51.503 70.069-18.482 16.576-40.38 31.149-63.423 42.224 22.688 14.728 41.968 34.593 55.835 57.548 16.476 27.269 25.185 58.595 25.185 90.589 0 97.817-79.58 177.394-177.395 177.394-97.821 0-177.402-79.579-177.402-177.394 0-32.061 8.743-63.444 25.286-90.752 13.928-22.999 33.288-42.879 56.063-57.595-22.959-11.093-44.764-25.652-63.158-42.179-23.408-21.028-41.16-45.2-51.336-69.904zM548.723 563.969c69.366 0 125.799-56.434 125.799-125.803 0-69.366-56.432-125.798-125.799-125.798-69.368 0-125.803 56.431-125.803 125.798 0 69.369 56.435 125.803 125.803 125.803zM848.424 832.749h-599.407c-52.319 0-94.881-42.561-94.881-94.88v-71.012h50.908v60.41c0 35.955 19.006 54.962 54.966 54.962h578.356c35.955 0 54.96-19.006 54.96-54.962v-672.747c0-35.96-19.003-54.968-54.96-54.968h-578.357c-35.959 0-54.966 19.006-54.966 54.968v60.401h-50.908v-69.968c0-52.32 42.562-94.883 94.881-94.883h599.408c52.319 0 94.883 42.563 94.883 94.883v692.92c0 52.314-42.564 94.877-94.883 94.877z"  horiz-adv-x="1024" />

    
    <glyph glyph-name="webicon212" unicode="&#59018;" d="M896.32 559.008 523.648 186.336c-0.064-0.064-0.16-0.064-0.192-0.128-0.064-0.064-0.064-0.128-0.128-0.192-2.752-2.752-6.304-4.032-9.952-4.32-0.48-0.032-0.896-0.256-1.376-0.256-0.48 0-0.896 0.192-1.376 0.256-3.648 0.288-7.2 1.568-9.952 4.32-0.064 0.064-0.064 0.128-0.128 0.192-0.064 0.064-0.16 0.064-0.192 0.128L127.68 559.008c-6.432 6.432-6.592 16.704-0.32 22.976 6.24 6.24 16.512 6.112 22.976-0.32L512 219.936 873.696 581.632c6.432 6.432 16.704 6.592 22.976 0.32C902.912 575.712 902.752 565.44 896.32 559.008z"  horiz-adv-x="1024" />

    
    <glyph glyph-name="mima" unicode="&#58974;" d="M522.368 885.6064c-144.1536 0-252.9024-114.6624-252.9024-266.752l0-93.7472-8.192 0c-75.776 0-137.4464-63.3088-137.4464-141.0816l0-360.5248c0-77.7728 61.6704-141.1072 137.4464-141.1072l524.3392 0c75.776 0 137.4464 63.3344 137.4464 141.1072L923.0592 384.0256c0 77.7728-61.6704 141.0816-137.4464 141.0816l-4.5056 0c-1.2032 0.4352-2.4576 0.5632-3.712 0.768l0 93.0048C777.4464 770.9184 667.8016 885.6064 522.368 885.6064L522.368 885.6064zM522.368 843.776c123.52 0 213.248-94.592 213.248-224.9472l0-92.3648L311.3216 526.464l0 92.3648C311.3216 749.184 400.0768 843.776 522.368 843.776L522.368 843.776zM881.28 384.0256l0-360.5248c0-54.7328-42.9312-99.2768-95.616-99.2768L261.2992-75.776c-52.736 0-95.616 44.544-95.616 99.2768L165.6832 384.0256c0 54.7072 42.88 99.2512 95.616 99.2512l50.0224 0 0 1.3824 424.2688 0 0-1.3824 50.048 0C838.3488 483.2512 881.28 438.7328 881.28 384.0256L881.28 384.0256zM881.28 384.0256M518.8608 327.9616c-33.5104 0-60.672-28.0064-60.672-62.5664 0-23.1168 12.2368-43.3408 30.336-54.1696l0-102.1952c0-17.2544 13.568-31.3088 30.336-31.3088 16.7424 0 30.336 14.0544 30.336 31.3088L549.1968 211.2c18.0992 10.8288 30.3104 31.0272 30.3104 54.1696C579.456 299.9296 552.32 327.9616 518.8608 327.9616L518.8608 327.9616zM518.8608 327.9616"  horiz-adv-x="1024" />

    
    <glyph glyph-name="gengduo" unicode="&#58915;" d="M352.37-57.729l355.436 430.296c4.414 6.982 4.414 15.882 0 22.864L352.372 825.733c-6.314 9.989-19.529 12.971-29.521 6.657-9.991-6.313-12.97-19.53-6.658-29.52l348.21-418.87L316.192-34.867c-6.314-9.991-3.334-23.206 6.657-29.52 3.548-2.242 7.503-3.312 11.411-3.312C341.356-67.699 348.297-64.171 352.37-57.729z"  horiz-adv-x="1024" />

    
    <glyph glyph-name="wujiaoxing1" unicode="&#58929;" d="M511.99937862 852.7333900900001L664.30283261 544.1386941999999 1004.85323647 494.65460144 758.42630815 254.44842428000004 816.60256074-84.73214854000003 511.99937862 75.40654565 207.39495495-84.73214854000003 265.57120876 254.44842428000004 19.14427923 494.65460144 359.69840894 544.1386941999999Z"  horiz-adv-x="1024" />

    
    <glyph glyph-name="cir-cny" unicode="&#58926;" d="M512 896c-282.778 0-512-229.222-512-512s229.222-512 512-512 512 229.222 512 512-229.222 512-512 512zM512-76.8c-254.49 0-460.8 206.31-460.8 460.8s206.31 460.8 460.8 460.8 460.8-206.31 460.8-460.8-206.31-460.8-460.8-460.8zM741.094 664.32c-10.010 10.010-26.189 10.010-36.198 0l-193.536-193.536-188.288 188.314c-9.446 9.446-24.755 9.446-34.202 0-9.446-9.446-9.446-24.755 0-34.202l189.696-189.696-171.366-0c-14.131 0-25.6-11.443-25.6-25.6s11.469-25.6 25.6-25.6h179.2v-102.4h-179.2c-14.131 0-25.6-11.443-25.6-25.6s11.469-25.6 25.6-25.6h179.2v-102.4c0-14.131 11.469-25.6 25.6-25.6 14.157 0 25.6 11.469 25.6 25.6v102.4h179.2c14.157 0 25.6 11.443 25.6 25.6s-11.443 25.6-25.6 25.6h-179.2v102.4h179.2c14.157 0 25.6 11.443 25.6 25.6s-11.443 25.6-25.6 25.6h-168.602l192.896 192.922c10.010 9.984 10.010 26.214 0 36.198z"  horiz-adv-x="1024" />

    
    <glyph glyph-name="iconfontzhizuobiaozhunbduan27" unicode="&#59105;" d="M508.096599 379.986593c-0.378623-0.141216-0.818645-0.394996-1.139963-0.848321 0.063445 0.089028 0.130983 0.169869 0.202615 0.24457C507.448846 379.686764 507.7937 379.874029 508.096599 379.986593L508.096599 379.986593zM507.442706 379.421728c0.049119 0.101307 0.107447 0.193405 0.168846 0.279363C507.550153 379.616156 507.491825 379.523035 507.442706 379.421728L507.442706 379.421728zM507.602342 379.814678c-0.029676-0.158612-0.083911-0.330528-0.150426-0.505513C507.519454 379.485173 507.574712 379.657088 507.602342 379.814678L507.602342 379.814678zM507.479545 379.447311c0.027629 0.082888 0.062422 0.155543 0.095167 0.230244C507.540943 379.602853 507.507174 379.530199 507.479545 379.447311L507.479545 379.447311zM507.504104 379.505639c0.016373 0.034792 0.027629 0.076748 0.046049 0.112564C507.532757 379.58341 507.520477 379.541455 507.504104 379.505639L507.504104 379.505639zM507.52457 379.556804 507.53071 379.567038 507.52457 379.556804ZM507.479545 379.3634c0.023536 0.143263 0.056282 0.276293 0.095167 0.398066C507.534803 379.638669 507.503081 379.505639 507.479545 379.3634L507.479545 379.3634zM507.481591 379.455497c0.035816 0.073678 0.061398 0.144286 0.091074 0.213871C507.54299 379.59876 507.519454 379.527129 507.481591 379.455497L507.481591 379.455497 507.481591 379.455497zM507.75367 379.627827l-0.229947-0.275922 0 0 0.229947 0.275922 0 0ZM452.811458 158.196231c-18.445094-18.459421-41.478693-31.885198-55.608505-35.960003l-22.794146 37.654598c14.857383 4.76963 34.964326 14.889105 50.54928 30.455639 16.84976 16.771989 18.780739 32.618908 8.194636 43.178405-10.066263 10.070356-23.506367 8.15882-49.881061-4.340865-36.20355-17.514909-68.567655-20.135596-92.081185 3.375887-27.585265 27.577079-25.683962 71.695902 12.44852 109.810988 18.262946 18.252713 35.505655 27.839045 49.433876 33.107025l21.308305-37.643342c-9.559727-3.361561-25.64917-10.32209-41.476647-26.136264-15.821337-15.832594-16.280802-30.698163-7.866155-39.123043 10.250458-10.277064 23.934109-5.713119 52.717665 7.232728 39.127136 17.97949 67.398016 16.517185 90.181929-6.255471C495.039211 246.437971 497.178945 202.569858 452.811458 158.196231L452.811458 158.196231zM368.26283-126.606257c-35.716456 0-69.295226 13.904685-94.547353 39.152718l-233.240135 233.245252c-52.066843 52.121078-52.067866 136.931672-0.01228 189.0681l520.601912 520.584516c25.226544 25.252127 58.818617 39.162952 94.577029 39.162952 2.013867 0 4.055362-0.046049 6.068206-0.137123l223.007073-10.19827c33.407877-1.514493 64.833611-15.371082 88.481194-39.014572 23.642466-23.639396 37.500079-55.051827 39.023782-88.452541l10.215666-223.034702c1.703805-37.493939-12.529361-74.18049-39.049365-100.662631l-520.577353-520.558933C437.558056-112.701572 403.980309-126.606257 368.26283-126.606257zM655.643026 849.954291c-23.823592 0-46.196135-9.261944-62.995753-26.076912l-520.597819-520.579399c-34.669614-34.723849-34.670637-91.224678 0.008186-125.941364l233.229902-233.235019c16.818037-16.813944 39.183418-26.074865 62.975287-26.074865 23.791869 0 46.157249 9.261944 62.97631 26.076912l520.586562 520.568143c17.666358 17.640776 27.14115 42.073234 26.007327 67.043952l-10.215666 223.030609c-1.01512 22.25077-10.244318 43.171242-25.989931 58.914808-15.749706 15.747659-36.682457 24.974811-58.94039 25.984814l-223.004003 10.19827C658.350694 849.923592 656.98765 849.954291 655.643026 849.954291zM673.84969 384.01535 512.19494 545.662937 548.872281 582.330044 679.844218 451.37448 744.11194 515.671878 774.823406 484.95632 673.84969 384.01535ZM784.440437 494.651123 622.845039 656.26494 722.585671 756.034225 752.551146 726.066703 689.485809 662.979876 723.067648 629.409292 782.540158 688.885895 812.257993 659.143501 752.814136 599.700667 791.162536 561.308265 857.569992 627.714697 887.586632 597.747175 784.440437 494.651123ZM452.415438 485.880365l-47.922453-47.954175 112.194268-211.07737 37.855166 37.887912-29.938869 53.021587 46.27186 46.263673 53.931307-28.974915 39.331797 39.320541L452.415438 485.880365zM502.51344 350.365972l-24.685215 43.87937c-6.723122 12.000312-16.518209 26.630521-23.749914 38.612413l0.48914 0.497327c12.021801-7.223518 26.879184-16.305361 39.328727-23.013133l44.376697-24.231891L502.51344 350.365972z"  horiz-adv-x="1024" />

    
    <glyph glyph-name="duihuanqingkuang" unicode="&#59144;" d="M907.832889 440.888889 454.599111 440.888889 225.678222 440.888889 454.599111 668.444444 454.599111 554.666667 871.708444 554.666667C807.253333 688.696889 670.947556 782.222222 511.829333 782.222222 310.385778 782.222222 143.701333 633.571556 115.825778 440.888889L0.170667 440.888889C28.615111 696.888889 246.727111 896 511.829333 896 776.874667 896 994.986667 696.888889 1023.488 440.888889L912.384 440.888889 907.832889 440.888889ZM115.825778 327.111111 511.829333 327.111111 740.693333 327.111111 511.829333 99.555556 511.829333 213.333333 151.950222 213.333333C216.348444 79.303111 352.654222-14.222222 511.829333-14.222222 713.216-14.222222 879.900444 134.485333 907.832889 327.111111L1023.488 327.111111C994.986667 71.168 776.874667-128 511.829333-128 246.727111-128 28.615111 71.168 0.170667 327.111111L53.987556 327.111111 115.825778 327.111111Z"  horiz-adv-x="1024" />

    
    <glyph glyph-name="ruku" unicode="&#58884;" d="M128 896h768c70.7 0 128-57.3 128-128v-768c0-70.7-57.3-128-128-128h-768c-70.7 0-128 57.3-128 128v768c0 70.7 57.3 128 128 128zM64 0c0-35.4 28.7-64 64-64h768c35.3 0 64 28.6 64 64v768c0 35.3-28.6 64-64 64h-768c-35.3 0-64-28.6-64-64v-768zM224 64h576c17.7 0 32-14.3 32-32s-14.3-32-32-32h-576c-17.7 0-32 14.3-32 32s14.3 32 32 32zM535.8 138.1c-6.7-6.7-15.5-9.6-24.3-9.1-8.7-0.5-17.6 2.4-24.3 9.1l-158.2 191.3c-12.6 12.6-12.6 33 0 45.6 12.5 12.6 32.9 12.6 45.4 0l105.6-127.7v488.7c0 17.7 14.3 32 32 32s32-14.3 32-32v-487.5l104.5 126.5c12.5 12.6 32.9 12.6 45.4 0s12.5-33 0-45.6l-158.1-191.3z"  horiz-adv-x="1024" />

    
    <glyph glyph-name="771bianjiqi_chaifendanyuange" unicode="&#58986;" d="M576 896h384c35.34336 0 64-28.65664 64-64v-896s-28.65664-64-64-64h-384v64h384v896h-384.15872M320 448h128v-128h-128v-128L128 384l192 192v-128z m257.92 384H64v-896h514.13504l-0.85504-64H64C28.65664-128 0-99.34336 0-64v896S28.65664 896 64 896h516.16256M896 384l-192-192v128h-128v128h128v128L896 384z"  horiz-adv-x="1024" />

    
    <glyph glyph-name="zhengque" unicode="&#58895;" d="M969.6 688c-9.6 9.6-25.6 9.6-35.2 0L425.6 150.4c-19.2-19.2-48-19.2-70.4-3.2L89.6 400c-9.6 9.6-25.6 9.6-35.2 0-9.6-9.6-9.6-25.6 0-35.2L320 112c38.4-38.4 102.4-35.2 137.6 3.2l508.8 537.6c12.8 9.6 12.8 25.6 3.2 35.2z"  horiz-adv-x="1024" />

    
    <glyph glyph-name="icon-test1" unicode="&#58897;" d="M511.999488 755.408985c115.202789 0 212.235752-98.829889 212.235753-212.235752v-70.745251H299.763736v70.745251c0 113.405863 97.014544 212.235752 212.235752 212.235752m0 35.364439c-140.817166 0-247.609401-108.99439-247.6094-247.600191v-106.117877h495.217778V543.173233c0.001023 138.605801-106.791212 247.600191-247.608378 247.600191z m300.667828-353.718068v-318.354651c0-51.970652-53.318346-106.117876-106.117877-106.117876H317.449537c-52.79953 0-106.117876 54.147224-106.117876 106.117876V437.055356h601.335655m35.372625 35.371603H175.959036l0.017396-353.450985c0-78.750575 64.009849-141.749398 144.011928-141.749398h384.021233c80.003102 0 144.011928 62.998823 144.011928 141.749398V475.76089l0.01842-3.333931zM519.995603 307.982676c12.815887 0 24.007787-11.018961 24.007787-23.619954v-94.502327c0-12.599969-11.1919-23.62814-24.007787-23.62814-12.798491 0-24.007787 11.028171-24.007787 23.62814v94.502327c0 12.600993 11.209296 23.619954 24.007787 23.619954z"  horiz-adv-x="1024" />

    
    <glyph glyph-name="tuichu" unicode="&#58896;" d="M910.222222 355.555556l-238.933333-236.088889c-11.377778-11.377778-11.377778-28.444444 0-39.822223 5.688889-5.688889 14.222222-8.533333 19.911111-8.533333 8.533333 0 14.222222 2.844444 19.911111 8.533333l290.133333 284.444445c11.377778 11.377778 11.377778 28.444444 0 39.822222L711.111111 688.355556c-11.377778 11.377778-28.444444 11.377778-39.822222 0s-11.377778-28.444444 0-39.822223L910.222222 412.444444H341.333333c-17.066667 0-28.444444-11.377778-28.444444-28.444444s14.222222-28.444444 28.444444-28.444444h568.888889z m-164.977778-483.555556H187.733333C91.022222-128 14.222222-51.2 14.222222 42.666667V725.333333c0 93.866667 76.8 170.666667 173.511111 170.666667h557.511111c96.711111 0 173.511111-76.8 173.511112-170.666667v-22.755555c0-17.066667-14.222222-28.444444-28.444445-28.444445-17.066667 0-28.444444 11.377778-28.444444 28.444445V725.333333c0 62.577778-51.2 113.777778-113.777778 113.777778H187.733333c-62.577778 0-113.777778-51.2-113.777777-113.777778v-682.666666c0-62.577778 51.2-113.777778 113.777777-113.777778h557.511111c62.577778 0 113.777778 51.2 113.777778 113.777778v22.755555c0 17.066667 14.222222 28.444444 28.444445 28.444445 17.066667 0 28.444444-11.377778 28.444444-28.444445v-22.755555c2.844444-93.866667-76.8-170.666667-170.666667-170.666667z"  horiz-adv-x="1024" />

    
    <glyph glyph-name="icon6" unicode="&#58881;" d="M313.004 232.242c-22.696 72.656-45.037 144.18-67.382 215.702-22.349 71.532-44.837 143.021-66.872 214.649-2.535 8.24-6.131 10.976-14.824 10.602-18.737-0.804-37.531-0.316-56.301-0.26-19.712 0.058-33.867 13.169-33.712 31.094 0.153 17.698 13.857 30.458 33.198 30.544 28.479 0.127 56.958 0.047 85.438 0.031 20.681-0.012 30.118-6.955 36.246-26.559 47.899-153.234 95.902-306.436 143.446-459.78 2.786-8.988 6.73-11.011 15.487-10.992 132.040 0.282 264.081 0.323 396.121-0.070 9.512-0.029 12.428 3.144 14.549 11.724 27.595 111.645 55.558 223.198 83.449 334.771 4.285 17.138 15.74 26.87 31.146 26.61 14.444-0.244 26.869-10.034 29.434-24.77 1.060-6.088 0.049-12.899-1.47-19.020-27.717-111.616-55.651-223.179-83.557-334.749-2.195-8.775-4.548-17.51-6.773-26.276-5.767-22.716-14.722-29.715-38.429-29.715-151.782-0.004-303.564 0.159-455.345-0.227-12.356-0.032-25.263-2.127-36.928-6.136-18.632-6.402-29.196-22.939-29.009-40.694 0.191-18.131 11.85-33.515 30.481-41.003 5.062-2.034 7.78-1.904 10.579 3.58 17.827 34.934 46.649 53.619 85.822 52.618 38.785-0.991 66.111-21.171 82.883-56.090 1.266-2.636 5.499-5.445 8.376-5.47 41.098-0.353 82.201-0.040 123.298-0.44 6.808-0.067 7.859 4.112 9.907 8.401 27.675 57.999 101.596 72.403 147.268 28.082 8.609-8.354 14.788-19.45 21.005-29.922 2.686-4.525 4.849-6.576 10.19-6.487 19.412 0.322 38.834 0.274 58.251 0.112 19.804-0.166 33.629-13.354 33.327-31.44-0.292-17.485-14.243-30.097-33.582-30.187-18.446-0.085-36.906-0.4-55.335 0.171-7.226 0.224-10.626-2.127-13.791-8.635-16.069-33.038-42.833-51.74-79.501-53.343-36.687-1.602-66.004 14.21-83.379 46.502-7.194 13.372-14.935 15.834-28.266 15.526-35.256-0.817-70.548-0.484-105.818-0.049-7.232 0.089-10.57-2.224-13.769-8.666-17.425-35.103-46.116-54.132-85.327-53.309-39.18 0.822-67.096 20.956-83.129 56.718-2.632 5.871-6.012 7.96-11.932 9.192-52.926 11.016-89.178 53.862-89.233 104.98-0.046 43.037 28.201 81.967 71.22 98.129 3.884 1.458 7.799 2.833 12.544 4.553zM415.225 16.708c18.879 0.038 34.471 15.483 34.771 34.44 0.292 18.428-15.93 34.808-34.42 34.759-18.882-0.050-34.468-15.491-34.77-34.446-0.294-18.431 15.908-34.79 34.419-34.754zM725.938 16.708c18.879 0.039 34.471 15.483 34.771 34.44 0.292 18.428-15.93 34.808-34.42 34.759-18.882-0.050-34.469-15.491-34.77-34.446-0.294-18.431 15.908-34.79 34.419-34.754zM663.767 517.594c0-58.569 0-115.51-0.001-172.452 0-4.207 0.069-8.416-0.027-12.62-0.439-19.483-12.914-32.211-32.387-32.366-29.77-0.237-59.544-0.218-89.315-0.035-20.585 0.127-33.095 12.771-33.141 33.543-0.122 55.013-0.031 110.027-0.025 165.040 0.001 5.795 0 11.59 0 18.881-3.908 0-7.308 0-10.71 0-30.419 0.002-60.839 0.079-91.257-0.038-9.057-0.035-16.726 2.128-20.803 11.069-3.87 8.486 0.352 14.77 5.68 20.959 59.323 68.906 118.551 137.895 177.87 206.804 10.98 12.756 22.336 12.745 33.387-0.092 59.531-69.151 118.961-138.387 178.48-207.549 5.162-5.998 8.658-12.164 4.894-20.215-3.762-8.049-10.507-10.957-18.914-10.957-30.419 0-60.839 0.016-91.257 0.027-3.8 0.002-7.6 0.001-12.476 0.001z"  horiz-adv-x="1024" />

    
    <glyph glyph-name="weibiaoti5" unicode="&#58943;" d="M530.24397 435.869157c-5.081886 0-12.704715 2.540943-17.7866 7.622829L367.623623 580.702904c-10.163772 10.163772-12.704715 25.409429-2.540943 35.573201s25.409429 10.163772 35.573201 0l127.047146-121.965261 134.669975 129.588089c10.163772 10.163772 25.409429 10.163772 35.573201 0s10.163772-25.409429 0-35.573201l-152.456576-144.833747C542.948685 438.4101 535.325856 435.869157 530.24397 435.869157zM708.109975 428.246329 357.459851 428.246329c-15.245658 0-25.409429 10.163772-25.409429 25.409429s10.163772 25.409429 25.409429 25.409429l348.109181 0c15.245658 0 25.409429-10.163772 25.409429-25.409429S720.81469 428.246329 708.109975 428.246329zM708.109975 275.789753 357.459851 275.789753c-15.245658 0-25.409429 10.163772-25.409429 25.409429s10.163772 25.409429 25.409429 25.409429l348.109181 0c15.245658 0 25.409429-10.163772 25.409429-25.409429S720.81469 275.789753 708.109975 275.789753zM532.784913 123.333177c-15.245658 0-25.409429 10.163772-25.409429 25.409429L507.375484 438.4101c0 15.245658 10.163772 25.409429 25.409429 25.409429s25.409429-10.163772 25.409429-25.409429l0-289.667494C558.194342 133.496949 548.030571 123.333177 532.784913 123.333177zM468.80397-128c-5.081886 0-10.163772 2.540943-15.245658 5.081886l-101.637717 81.310174c-7.622829 7.622829-12.704715 17.7866-7.622829 27.950372 2.540943 10.163772 12.704715 17.7866 22.868486 17.7866l464.992556 0c27.950372 0 53.359801 10.163772 71.146402 30.491315 17.7866 17.7866 27.950372 43.19603 27.950372 68.605459l-2.540943 350.650124c0 15.245658 10.163772 25.409429 25.409429 25.409429l0 0c12.704715 0 25.409429-10.163772 25.409429-25.409429l2.540943-350.650124c0-40.655087-15.245658-78.769231-43.19603-109.260546-27.950372-27.950372-66.064516-45.736973-106.719603-45.736973L438.312655-51.771712l45.736973-35.573201c10.163772-7.622829 12.704715-25.409429 5.081886-35.573201C484.049628-125.459057 476.426799-128 468.80397-128zM77.498759 283.632754c-12.704715 0-25.409429 10.163772-25.409429 25.409429L47.007444 659.692308c0 40.655087 15.245658 78.769231 43.19603 109.260546 30.491315 27.950372 68.605459 45.736973 109.260546 45.736973l391.305211 0-45.736973 35.573201c-10.163772 7.622829-12.704715 25.409429-5.081886 35.573201s25.409429 12.704715 35.573201 5.081886l101.637717-81.310174c7.622829-7.622829 12.704715-17.7866 7.622829-27.950372S674.620347 763.870968 664.456576 763.870968L199.46402 763.870968c-27.950372 0-53.359801-12.704715-71.146402-30.491315C107.990074 713.052109 97.826303 687.64268 97.826303 662.233251L100.367246 311.583127C102.908189 296.337469 90.203474 283.632754 77.498759 283.632754L77.498759 283.632754z"  horiz-adv-x="1024" />

    
    <glyph glyph-name="shezhi" unicode="&#58958;" d="M556.07-64h-88.14a63.79 63.79 0 0 0-59.25 39.8c-5.57 13.63-13.61 34.73-22.29 62.21q-15.35 5.58-30.2 12.52C330.62 37.24 310 28 296.43 22.3a63.81 63.81 0 0 0-70 13.75L164 98.39a63.79 63.79 0 0 0-13.75 70c5.7 13.58 14.94 34.21 28.23 59.78Q171.6 243 166 258.38c-27.47 8.68-48.58 16.72-62.21 22.29A63.79 63.79 0 0 0 64 339.92v88.16a63.79 63.79 0 0 0 39.8 59.25c13.63 5.57 34.74 13.62 62.22 22.29q5.58 15.36 12.51 30.19C165.24 565.38 156 586 150.3 599.57a63.79 63.79 0 0 0 13.75 70L226.39 732a63.79 63.79 0 0 0 70 13.75c13.58-5.7 34.19-14.94 59.76-28.23Q371 724.39 386.38 730c8.68 27.48 16.72 48.59 22.3 62.22A63.79 63.79 0 0 0 467.93 832h88.15a63.79 63.79 0 0 0 59.25-39.8c5.57-13.63 13.62-34.74 22.29-62.21q15.35-5.58 30.2-12.52C693.38 730.76 714 740 727.57 745.7a63.79 63.79 0 0 0 70-13.75L860 669.61a63.79 63.79 0 0 0 13.75-70c-5.7-13.58-14.94-34.19-28.23-59.76Q852.4 525 858 509.62c27.47-8.68 48.58-16.72 62.21-22.29A63.79 63.79 0 0 0 960 428.07v-88.15a63.79 63.79 0 0 0-39.8-59.25c-13.63-5.57-34.73-13.61-62.21-22.29q-5.58-15.35-12.52-30.2C858.76 202.62 868 182 873.7 168.43a63.79 63.79 0 0 0-13.75-70L797.61 36a63.79 63.79 0 0 0-70-13.75c-13.58 5.7-34.19 14.94-59.76 28.23Q653 43.6 637.62 38c-8.68-27.47-16.72-48.58-22.29-62.21A63.79 63.79 0 0 0 556.07-64zM355.69 118.5a32 32 0 0 0 14.91-3.68 302.81 302.81 0 0 1 51.07-21.18 32 32 0 0 0 21.18-21.45c9.75-32.81 19-57.35 25.07-72.16h88.16c6.07 14.84 15.34 39.39 25.08 72.19a32 32 0 0 0 21.18 21.45 302.81 302.81 0 0 1 51.07 21.18 32 32 0 0 0 30.16-0.18c30.1-16.32 54-27.12 68.77-33.32l62.36 62.32c-6.21 14.79-17 38.7-33.33 68.8a32 32 0 0 0-0.18 30.16 302.83 302.83 0 0 1 21.18 51.07 32 32 0 0 0 21.45 21.18c32.81 9.75 57.35 19 72.16 25.07v88.16c-14.84 6.07-39.38 15.34-72.19 25.08a32 32 0 0 0-21.45 21.18 302.83 302.83 0 0 1-21.18 51.07 32 32 0 0 0 0.18 30.16c16.32 30.1 27.12 54 33.31 68.77l-62.29 62.33c-14.79-6.2-38.7-17-68.8-33.33a32 32 0 0 0-30.16-0.18 302.81 302.81 0 0 1-51.07 21.18 32 32 0 0 0-21.18 21.45c-9.74 32.8-19 57.35-25.07 72.16h-88.16c-6-14.78-15.26-39.19-25-71.79a32 32 0 0 0-21.3-21.85 302.81 302.81 0 0 1-51.07-21.17 32 32 0 0 0-30.16 0.18c-30.1 16.32-54 27.12-68.77 33.31l-62.32-62.3c6.2-14.79 17-38.7 33.33-68.8a32 32 0 0 0 0.18-30.16 302.81 302.81 0 0 1-21.17-51.07 32 32 0 0 0-21.45-21.18c-32.81-9.74-57.35-19-72.17-25.07v-88.16c14.74-6 39-15.21 71.5-24.87a32.07 32.07 0 0 0 22.39-22.2 303.54 303.54 0 0 1 20.59-49.62 32 32 0 0 0-0.3-31.59c-16.07-29.71-26.73-53.33-32.87-68l62.33-62.37c14.79 6.2 38.7 17 68.8 33.33a32 32 0 0 0 15.23 3.9zM556.07-64h-88.14a63.79 63.79 0 0 0-59.25 39.8c-5.57 13.63-13.61 34.73-22.29 62.21q-15.35 5.58-30.2 12.52C330.62 37.24 310 28 296.43 22.3a63.81 63.81 0 0 0-70 13.75L164 98.39a63.79 63.79 0 0 0-13.75 70c5.7 13.58 14.94 34.21 28.23 59.78Q171.6 243 166 258.38c-27.47 8.68-48.58 16.72-62.21 22.29A63.79 63.79 0 0 0 64 339.92v88.16a63.79 63.79 0 0 0 39.8 59.25c13.63 5.57 34.74 13.62 62.22 22.29q5.58 15.36 12.51 30.19C165.24 565.38 156 586 150.3 599.57a63.79 63.79 0 0 0 13.75 70L226.39 732a63.79 63.79 0 0 0 70 13.75c13.58-5.7 34.19-14.94 59.76-28.23Q371 724.39 386.38 730c8.68 27.48 16.72 48.59 22.3 62.22A63.79 63.79 0 0 0 467.93 832h88.15a63.79 63.79 0 0 0 59.25-39.8c5.57-13.63 13.62-34.74 22.29-62.21q15.35-5.58 30.2-12.52C693.38 730.76 714 740 727.57 745.7a63.79 63.79 0 0 0 70-13.75L860 669.61a63.79 63.79 0 0 0 13.75-70c-5.7-13.58-14.94-34.19-28.23-59.76Q852.4 525 858 509.62c27.47-8.68 48.58-16.72 62.21-22.29A63.79 63.79 0 0 0 960 428.07v-88.15a63.79 63.79 0 0 0-39.8-59.25c-13.63-5.57-34.73-13.61-62.21-22.29q-5.58-15.35-12.52-30.2C858.76 202.62 868 182 873.7 168.43a63.79 63.79 0 0 0-13.75-70L797.61 36a63.79 63.79 0 0 0-70-13.75c-13.58 5.7-34.19 14.94-59.76 28.23Q653 43.6 637.62 38c-8.68-27.47-16.72-48.58-22.29-62.21A63.79 63.79 0 0 0 556.07-64zM355.69 118.5a32 32 0 0 0 14.91-3.68 302.81 302.81 0 0 1 51.07-21.18 32 32 0 0 0 21.18-21.45c9.75-32.81 19-57.35 25.07-72.16h88.16c6.07 14.84 15.34 39.39 25.08 72.19a32 32 0 0 0 21.18 21.45 302.81 302.81 0 0 1 51.07 21.18 32 32 0 0 0 30.16-0.18c30.1-16.32 54-27.12 68.77-33.32l62.36 62.32c-6.21 14.79-17 38.7-33.33 68.8a32 32 0 0 0-0.18 30.16 302.83 302.83 0 0 1 21.18 51.07 32 32 0 0 0 21.45 21.18c32.81 9.75 57.35 19 72.16 25.07v88.16c-14.84 6.07-39.38 15.34-72.19 25.08a32 32 0 0 0-21.45 21.18 302.83 302.83 0 0 1-21.18 51.07 32 32 0 0 0 0.18 30.16c16.32 30.1 27.12 54 33.31 68.77l-62.29 62.33c-14.79-6.2-38.7-17-68.8-33.33a32 32 0 0 0-30.16-0.18 302.81 302.81 0 0 1-51.07 21.18 32 32 0 0 0-21.18 21.45c-9.74 32.8-19 57.35-25.07 72.16h-88.16c-6-14.78-15.26-39.19-25-71.79a32 32 0 0 0-21.3-21.85 302.81 302.81 0 0 1-51.07-21.17 32 32 0 0 0-30.16 0.18c-30.1 16.32-54 27.12-68.77 33.31l-62.32-62.3c6.2-14.79 17-38.7 33.33-68.8a32 32 0 0 0 0.18-30.16 302.81 302.81 0 0 1-21.17-51.07 32 32 0 0 0-21.45-21.18c-32.81-9.74-57.35-19-72.17-25.07v-88.16c14.74-6 39-15.21 71.5-24.87a32.07 32.07 0 0 0 22.39-22.2 303.54 303.54 0 0 1 20.59-49.62 32 32 0 0 0-0.3-31.59c-16.07-29.71-26.73-53.33-32.87-68l62.33-62.37c14.79 6.2 38.7 17 68.8 33.33a32 32 0 0 0 15.23 3.9zM512 192c-105.87 0-192 86.13-192 192s86.13 192 192 192 192-86.13 192-192-86.13-192-192-192z m0 320a128 128 0 1 1 128-128 128.15 128.15 0 0 1-128 128z"  horiz-adv-x="1024" />

    
    <glyph glyph-name="tixian" unicode="&#58893;" d="M956.416 555.008c-11.264 11.776-25.6 15.36-40.448 15.36h-769.536c-15.36 0-30.208 8.704-40.448 20.48-11.264 11.776-16.896 29.184-16.896 45.568s6.144 30.72 16.896 41.984c11.264 11.776 25.6 15.36 40.448 15.36h153.6c10.752 0 19.456 9.216 19.456 20.48s-8.704 20.48-19.456 20.48h-153.6c-25.6 0-49.664-8.192-68.096-27.648-17.92-19.456-28.16-43.008-28.16-70.144 0-1.536 0.512-2.56 0.512-4.096h-0.512v-586.24c0-27.136 10.24-55.808 28.16-75.264 17.92-19.456 42.496-32.768 68.096-32.768h769.536c15.36 0 30.208 9.216 40.448 20.992 11.264 11.776 16.896 30.208 16.896 46.08v509.952c0.512 15.36-5.632 28.16-16.896 39.424zM935.424 4.608c0-5.632-2.048-13.312-5.632-17.408-3.584-3.584-8.192-8.704-13.312-8.704h-770.048c-15.36 0-30.208 9.216-40.448 20.992-11.264 11.776-16.896 30.208-16.896 46.08v507.904c16.384-13.824 36.352-23.552 57.856-23.552H916.48c5.12 0 10.24 1.024 13.312-3.072 3.584-3.584 5.632-6.144 5.632-11.776V4.608z m-119.808 688.128h3.584c5.12 0 10.24 1.024 13.312-3.072 3.584-3.584 5.632-6.144 5.632-11.776v-30.72c0-11.264 8.704-20.48 19.456-20.48 10.752 0 19.456 9.216 19.456 20.48v30.72c0 16.384-6.144 28.672-16.896 39.936-11.264 11.776-25.6 15.36-40.448 15.36h-3.584c-10.752 0-19.456-9.216-19.456-20.48 0-10.752 8.192-19.968 18.944-19.968z m-487.424-93.696l288.256 187.904c4.608 2.56 10.24 2.56 15.36 1.024 5.12-2.048 8.704-6.144 11.264-11.264l91.136-167.424 35.328 15.872-91.136 167.424c-6.144 15.872-17.92 27.648-33.28 33.792-14.848 6.144-31.232 5.12-45.568-2.56l-288.256-187.904 16.896-36.864z m483.84-473.6h-184.832c-12.8 0-23.04-10.752-23.04-23.552s10.24-23.552 23.04-23.552h184.832c12.8 0 23.04 10.752 23.04 23.552s-10.24 23.552-23.04 23.552z"  horiz-adv-x="1024" />

    
    <glyph glyph-name="checked" unicode="&#58944;" d="M789.333333 768h-554.666666C174.933333 768 128 721.066667 128 661.333333v-554.666666C128 46.93333299999995 174.933333 0 234.666667 0h554.666666c59.733333 0 106.666667 46.933333 106.666667 106.666667v554.666666C896 721.066667 849.066667 768 789.333333 768zM853.333333 106.66666699999996c0-34.133333-29.866667-64-64-64h-554.666666c-34.133333 0-64 29.866667-64 64v554.666666C170.666667 695.466667 200.533333 725.333333 234.666667 725.333333h554.666666c34.133333 0 64-29.866667 64-64v-554.666666zM729.6 494.933333v42.666667c4.266667 21.333333 4.266667 42.666667 8.533333 59.733333-51.2-25.6-89.6-59.733333-128-102.4l-12.8-8.533333c-51.2-64-93.866667-128-128-200.533333-21.333333 38.4-42.666667 76.8-64 119.466666l-132.266666-76.8c4.266667 0 8.533333-4.266667 12.8-4.266666 25.6-12.8 51.2-25.6 72.533333-42.666667 42.666667-29.866667 81.066667-68.266667 115.2-106.666667v-4.266666c55.466667 85.333333 119.466667 162.133333 196.266667 226.133333l17.066666 12.8c12.8 8.533333 29.866667 21.333333 46.933334 25.6 4.266667 0 4.266667 0 8.533333 4.266667 0 0 0 4.266667-4.266667 4.266666 0 17.066667-4.266667 34.133333-8.533333 51.2z"  horiz-adv-x="1024" />

    
    <glyph glyph-name="uncheck" unicode="&#58945;" d="M785.066667 4.266666999999984h-554.666667c-59.733333 0-106.666667 46.933333-106.666667 106.666666v554.666667C123.733333 725.333333 170.666667 772.266667 230.4 772.266667h554.666667c59.733333 0 106.666667-46.933333 106.666666-106.666667v-554.666667c0-59.733333-46.933333-106.666667-106.666666-106.666666z m-554.666667 725.333333c-34.133333 0-64-29.866667-64-64v-554.666667c0-34.133333 29.866667-64 64-64h554.666667c34.133333 0 64 29.866667 64 64v554.666667c0 34.133333-29.866667 64-64 64h-554.666667z"  horiz-adv-x="1024" />

    
    <glyph glyph-name="account" unicode="&#58890;" d="M962.4-116.8s0-0.8 0 0v0zM704 557.6c0 143.2-115.2 260-258.4 260s-258.4-116.8-258.4-260 116-260 258.4-260 258.4 116.8 258.4 260zM232 557.6c0 118.4 96 214.4 213.6 214.4s213.6-96 213.6-214.4-96-214.4-213.6-214.4-213.6 96-213.6 214.4zM456.8 274.4c196.8 0 361.6-136 394.4-324h45.6c-33.6 213.6-219.2 368.8-440.8 368.8-221.6 0-406.4-155.2-440.8-368.8h45.6c35.2 188.8 199.2 324 396 324zM770.4 317.6l-24 8.8 20.8 14.4c65.6 46.4 104.8 122.4 103.2 202.4-1.6 128-102.4 232.8-228 241.6v-47.2c100-8.8 180-92.8 180.8-194.4 0.8-52.8-19.2-102.4-56-140.8-36.8-37.6-86.4-59.2-139.2-60-24.8 0-50.4 0-75.2-1.6-15.2-1.6-41.6 0-54.4-9.6-1.6-0.8-3.2 0-4.8 0l-9.6-12c-0.8-1.6-2.4-3.2-4-4.8 0.8-1.6-0.8-16 0-17.6 12-4 71.2 0 156.8-2.4 179.2-1.6 326.4-160.8 340.8-338.4l47.2-3.2c-9.6 156-108 310.4-254.4 364.8z"  horiz-adv-x="1024" />

    
    <glyph glyph-name="wushuju" unicode="&#58946;" d="M156.662278 196.241827h21.097186A10.444152 10.444152 0 0 0 187.994733 185.797675c0-5.765172-4.490985-10.444152-10.235269-10.444152H156.662278v-21.097186A10.444152 10.444152 0 0 0 146.218126 144.021068a10.277045 10.277045 0 0 0-10.444152 10.235269V175.353523H114.676787A10.444152 10.444152 0 0 0 104.441518 185.797675c0 5.765172 4.490985 10.444152 10.235269 10.444152H135.773974v21.097187A10.444152 10.444152 0 0 0 146.218126 227.574283c5.765172 0 10.444152-4.490985 10.444152-10.235269v-21.097187z m1378.628042 83.553215v21.097186A10.277045 10.277045 0 0 1 1524.846168 311.127497a10.444152 10.444152 0 0 1-10.444152-10.235269v-21.097186h-21.097186a10.277045 10.277045 0 0 1-10.235269-10.444152c0-5.598065 4.595427-10.444152 10.235269-10.444152h21.097186v-21.097187c0-5.744284 4.67898-10.235269 10.444152-10.235268a10.444152 10.444152 0 0 1 10.444152 10.235268V258.906738h21.097187c5.744284 0 10.235269 4.67898 10.235268 10.444152a10.444152 10.444152 0 0 1-10.235268 10.444152H1535.29032zM776.460024-64.861969H250.596979A20.80475 20.80475 0 0 0 229.77134-43.973665c0 11.530344 9.462402 20.888304 20.825639 20.888303h94.728457A83.010119 83.010119 0 0 0 334.212859 18.586804v605.96969A83.49055 83.49055 0 0 0 417.849627 708.005267H480.430984V728.998012A83.49055 83.49055 0 0 0 564.067752 812.446785h501.152182A83.448773 83.448773 0 0 0 1148.856702 728.998012v-605.969689c0-15.185797-4.052331-29.410732-11.133466-41.672166h115.554096c11.551232 0 20.909192-9.274407 20.909192-20.888304 0-11.530344-9.295295-20.888304-20.888304-20.888304H1002.638576v-20.992745c0-15.185797-4.052331-29.410732-11.133466-41.672166h11.196131c11.488567 0 20.825639-9.274407 20.825639-20.888303 0-11.530344-9.462402-20.888304-20.825639-20.888304h-109.893365c9.545955-16.000441 7.478013-36.972297-6.41271-50.863019a41.672166 41.672166 0 0 0-59.072122 0L776.460024-64.861969z m76.367638 41.776607h66.424806c22.977134 0 41.609501 18.59059 41.609501 41.881049V625.538244c0 22.559368-18.047494 40.690416-40.314426 40.690416H416.303892c-22.266932 0-40.314426-18.214601-40.314426-40.690416v-606.742557c0-23.123352 18.799473-41.881049 41.588613-41.881049h317.084449l-10.736588 10.757477a41.693054 41.693054 0 0 0-10.861918 40.377091l-19.718558 19.739447A146.259902 146.259902 0 0 0 502.363703 268.306475a146.218126 146.218126 0 0 0 220.517822-190.981761l19.739447-19.739447a41.630389 41.630389 0 0 0 40.377091-10.841029L852.827662-23.085362zM1002.638576 81.356157h62.852906A41.797496 41.797496 0 0 1 1107.080095 123.132764V728.893571c0 23.14424-18.632367 41.776607-41.588613 41.776607H563.775316A41.797496 41.797496 0 0 1 522.207592 728.893571v-20.888304h396.794216A83.448773 83.448773 0 0 0 1002.638576 624.556494V81.356157zM266.325872 849.001317h31.123572c8.773088 0 15.875111-6.955805 15.875111-15.666228 0-8.647758-7.102023-15.666228-15.875111-15.666228h-31.123572v-31.123572c0-8.773088-6.955805-15.875111-15.666228-15.875111a15.770669 15.770669 0 0 0-15.666228 15.875111V817.668861H203.869844A15.728893 15.728893 0 0 0 187.994733 833.335089c0 8.647758 7.102023 15.666228 15.875111 15.666228h31.123572V880.124889c0 8.773088 6.955805 15.875111 15.666228 15.875111 8.647758 0 15.666228-7.102023 15.666228-15.875111v-31.123572zM20.888304-43.973665c0 11.530344 9.462402 20.888304 20.825638 20.888303h125.455152c11.488567 0 20.825639-9.274407 20.825639-20.888303 0-11.530344-9.462402-20.888304-20.825639-20.888304H41.713942A20.80475 20.80475 0 0 0 20.888304-43.973665z m658.733544 135.021995a104.441518 104.441518 0 1 1-147.722083 147.722083 104.441518 104.441518 0 0 1 147.722083-147.722083zM459.542681 582.675445a20.888304 20.888304 0 0 0 20.867415 20.888304H710.202325a20.888304 20.888304 0 1 0 0-41.776608H480.430984A20.825639 20.825639 0 0 0 459.542681 582.675445z m0-104.441518c0 11.530344 9.295295 20.888304 20.742085 20.888303h334.505295c11.44679 0 20.742086-9.274407 20.742086-20.888303 0-11.530344-9.295295-20.888304-20.742086-20.888304H480.284766A20.762974 20.762974 0 0 0 459.542681 478.233927z m0-104.441519c0 11.530344 9.316183 20.888304 20.846527 20.888304h146.301679c11.509455 0 20.846527-9.274407 20.846527-20.888304 0-11.530344-9.316183-20.888304-20.846527-20.888303h-146.301679A20.80475 20.80475 0 0 0 459.542681 373.792408zM62.664911 499.12223a62.664911 62.664911 0 1 0 0 125.329822 62.664911 62.664911 0 0 0 0-125.329822z m0 31.332456a31.332456 31.332456 0 1 1 0 62.664911 31.332456 31.332456 0 0 1 0-62.664911zM1357.739739 624.452052a62.664911 62.664911 0 1 0 0 125.329822 62.664911 62.664911 0 0 0 0-125.329822z m0 31.332456a31.332456 31.332456 0 1 1 0 62.664911 31.332456 31.332456 0 0 1 0-62.664911z"  horiz-adv-x="1567" />

    
    <glyph glyph-name="tubiao" unicode="&#58967;" d="M38.429756 258.145549c-10.547933 0-21.043866 4.299973-28.646818 12.799919-14.13091 15.8199-12.773919 40.089746 3.019981 54.219655l430.587267 385.301555L625.45603 551.773685 958.429916 884.748571c15.001905 15.001905 39.295751 15.001905 54.297656 0 15.000905-14.975905 15.000905-39.32075 0-54.296655l-383.662565-383.687564L444.030181 608.015328 64.002594 267.924487a38.262757 38.262757 0 0 0-25.573838-9.778938zM166.401944-128h-51.199675C51.689672-128 0.004-76.314328 0.004-12.800731V115.195456c0 63.513597 51.685672 115.199269 115.199269 115.199269h51.198675c63.512597 0 115.199269-51.685672 115.199268-115.199269V-12.800731c0-63.512597-51.686672-115.198269-115.199268-115.198269z m-51.199675 281.596213c-21.169866 0-38.399756-17.227891-38.399757-38.399757V-12.800731c0-21.169866 17.229891-38.399756 38.399757-38.399756h51.199675c21.170866 0 38.399756 17.229891 38.399756 38.399756v127.999187c0 21.169866-17.228891 38.399756-38.399756 38.399757h-51.199675zM524.796669-128h-51.198675c-63.512597 0-115.199269 51.685672-115.199269 115.199269V268.794481c0 63.512597 51.686672 115.198269 115.199269 115.198269h51.199675c63.512597 0 115.198269-51.685672 115.198269-115.199269V-12.800731C639.995938-76.314328 588.310266-128 524.796669-128z m-51.198675 435.194238c-21.170866 0-38.399756-17.227891-38.399756-38.399757V-12.800731c0-21.169866 17.228891-38.399756 38.399756-38.399756h51.199675c21.169866 0 38.399756 17.229891 38.399756 38.399756V268.795481c0 21.169866-17.229891 38.399756-38.399756 38.399757h-51.199675zM908.792231-128h-76.799512c-63.511597 0-115.198269 51.685672-115.198269 115.199269V422.392506c0 63.512597 51.686672 115.198269 115.199269 115.198269h76.799512c63.511597 0 115.198269-51.685672 115.198269-115.199269V-12.800731c0-63.512597-51.686672-115.198269-115.199269-115.198269z m-76.799512 588.792263c-21.169866 0-38.398756-17.227891-38.398756-38.399757V-12.800731c0-21.169866 17.228891-38.399756 38.399756-38.399756h76.799512c21.169866 0 38.398756 17.229891 38.398757 38.399756V422.393506c0 21.169866-17.228891 38.399756-38.399757 38.399757h-76.799512zM985.591744 575.991531c-21.196865 0-38.399756 17.176891-38.399756 38.399757V819.186988H742.394288c-21.195865 0-38.399756 17.177891-38.399757 38.399756s17.203891 38.399756 38.399757 38.399756h281.597212v-281.597212c0-21.221865-17.203891-38.399756-38.399756-38.399757z"  horiz-adv-x="1024" />

    
    <glyph glyph-name="chart-a" unicode="&#58997;" d="M832 160H192a21.333333 21.333333 0 0 0-21.333333 21.333333v533.333334a21.333333 21.333333 0 0 0 21.333333 21.333333h640a21.333333 21.333333 0 0 0 21.333333-21.333333v-533.333334a21.333333 21.333333 0 0 0-21.333333-21.333333z m-618.666667 42.666667h597.333334v490.666666H213.333333zM896 693.333333H128a21.333333 21.333333 0 0 0 0 42.666667h768a21.333333 21.333333 0 0 0 0-42.666667zM512 32a21.333333 21.333333 0 0 0-21.333333 21.333333v128a21.333333 21.333333 0 0 0 42.666666 0v-128a21.333333 21.333333 0 0 0-21.333333-21.333333zM576 32.02133300000003h-128a21.333333 21.333333 0 0 0 0 42.666667h128a21.333333 21.333333 0 0 0 0-42.666667zM896 160H128a21.333333 21.333333 0 0 0 0 42.666667h768a21.333333 21.333333 0 0 0 0-42.666667zM277.333333 309.33333300000004a21.333333 21.333333 0 0 0-15.082666 36.416l128 128a21.312 21.312 0 0 0 26.922666 2.666667l114.197334-76.16 201.024 180.906667a21.333333 21.333333 0 1 0 28.544-31.701334l-213.333334-192a21.333333 21.333333 0 0 0-26.112-1.877333l-113.450666 75.626667-115.626667-115.626667A21.269333 21.269333 0 0 0 277.333333 309.33333300000004z"  horiz-adv-x="1024" />

    
    <glyph glyph-name="chuku" unicode="&#59204;" d="M847.793-61.904h-672.24c-61.872 0-112.04 50.168-112.04 112.04v672.24c0 61.873 50.168 112.04 112.04 112.04h672.24c61.872 0 112.04-50.167 112.04-112.04v-672.24c0.001-61.872-50.168-112.04-112.04-112.04z m56.046 784.28c0 30.962-25.085 56.02-56.046 56.02h-672.24c-30.936 0-56.02-25.058-56.02-56.02v-672.24c0-30.91 25.059-56.02 56.02-56.02h672.24c30.936 0 56.046 25.059 56.046 56.02v672.24z m-140.05-56.02H259.584c-15.481 0-28.01 12.556-28.01 28.01s12.529 28.01 28.01 28.01h504.18c15.48 0 28.034-12.554 28.034-28.01s-12.554-28.01-28.009-28.01z m-272.948-64.823c5.852 5.853 13.603 8.403 21.308 8.003 7.653 0.4 15.43-2.101 21.283-8.003l138.4-167.51c11.027-11.053 11.027-28.91 0-39.914-10.98-11.003-28.786-11.003-39.764 0l-92.383 111.84v-427.803c0-15.456-12.505-28.01-28.01-28.01-15.456 0-28.01 12.555-28.01 28.01V504.9l-91.508-110.74c-10.979-11.054-28.785-11.054-39.764 0-10.979 11.004-10.979 28.86 0 39.913l138.448 167.461z"  horiz-adv-x="1024" />

    
    <glyph glyph-name="wallet-unlock" unicode="&#58919;" d="M232.208275 186.268282a58.221016 58.221016 0 0 1-19.407006-112.685838v-82.636282H250.989248V74.20847600000002a58.221016 58.221016 0 0 1-19.407006 112.685838zM969.04845 727.160305h-38.814011l-20.033038 98.287092a87.018508 87.018508 0 0 1-38.814011 57.594984A72.619762 72.619762 0 0 1 814.418438 894.310964L250.989248 736.550791a79.506119 79.506119 0 0 1-44.448303-30.049557 91.400735 91.400735 0 0 1-24.415265-62.603243v-112.685838A142.735395 142.735395 0 0 1 84.46462 393.485017v-110.80774a231.632001 231.632001 0 1 1 366.228974-254.169169h518.980888a83.888346 83.888346 0 0 1 79.506119 87.644541V640.141796a83.888346 83.888346 0 0 1-80.132151 87.018509zM830.695282 831.707721a10.016519 10.016519 0 0 0 8.764454 0 25.041297 25.041297 0 0 0 10.016519-16.276843l17.528908-85.766444H453.197724zM232.834307-65.39675699999998a170.906854 170.906854 0 1 0 169.028757 170.906855 170.280822 170.280822 0 0 0-169.028757-170.906855z m736.840175 156.508109H463.214243v13.772713a232.884065 232.884065 0 0 1-231.632001 233.510098 229.127871 229.127871 0 0 1-85.766443-16.902875V393.485017a80.132152 80.132152 0 0 0 81.384216 78.880087h11.268584A80.132152 80.132152 0 0 0 317.974718 393.485017h62.603244a142.735395 142.735395 0 0 1-135.223006 140.857298V640.141796c0 14.398746 8.764454 25.041297 16.902876 25.041298h706.790618c8.138422 0 16.902876-10.642551 16.902875-25.041298V518.691504h-211.598962a31.301622 31.301622 0 0 1-31.301622-31.301622V268.27853100000004a31.301622 31.301622 0 0 1 31.301622-31.301622h211.598962v-118.946162c0-16.276843-8.764454-26.919395-16.902875-26.919395z m16.902876 206.590703h-180.923374V456.088261h180.297341zM865.127066 375.95610899999997a35.683849 30.675589000000002 90 1 1 61.351178 0 35.683849 30.675589000000002 90 1 1-61.351178 0Z"  horiz-adv-x="1051" />

    
    <glyph glyph-name="xinyonghu" unicode="&#58880;" d="M512 270.222c-159.289 0-284.444 125.156-284.444 284.445S352.71 839.11 512 839.11s284.444-125.155 284.444-284.444S671.29 270.222 512 270.222z m0 56.89c125.156 0 227.556 102.4 227.556 227.555S637.156 782.222 512 782.222s-227.556-102.4-227.556-227.555S386.844 327.11 512 327.11zM796.444-128h-56.888V270.222h56.888V-128zM568.89 42.667v56.889H967.11v-56.89H568.89zM512 270.222c-221.867 0-398.222-176.355-398.222-398.222h-56.89c0 250.311 204.8 455.111 455.112 455.111"  horiz-adv-x="1024" />

    
    <glyph glyph-name="meiyuanqian" unicode="&#58900;" d="M1005.088905 557.114484l-319.9901 319.990101a63.99802 63.99802 0 0 1-106.556704-26.239189 297.910783 297.910783 0 0 0-76.797624-124.796139 875.492914 875.492914 0 0 0-182.394357-127.99604 982.049618 982.049618 0 0 1-208.633545-146.875456 422.706923 422.706923 0 0 1-107.836664-176.314545 63.99802 63.99802 0 0 1 15.999505-63.99802l319.9901-319.990101a63.99802 63.99802 0 0 1 106.556704 26.239189 297.910783 297.910783 0 0 0 76.797624 124.796139 874.212954 874.212954 0 0 0 182.394357 127.99604 985.249519 985.249519 0 0 1 208.633545 146.875456 422.386932 422.386932 0 0 1 108.476644 177.594506 63.99802 63.99802 0 0 1-16.639485 62.718059zM383.98812-63.9863L63.99802 256.0038c90.877188 294.390892 485.104992 281.591288 575.982181 575.98218l319.9901-319.9901c-90.877188-294.390892-485.104992-281.591288-575.982181-575.98218zM625.900636 419.198751a85.437357 85.437357 0 0 1-31.99901 17.599456 92.477139 92.477139 0 0 1-31.99901 3.519891 113.596486 113.596486 0 0 1-31.99901-7.359773c-10.879663-4.159871-21.439337-8.639733-31.99901-14.079564-17.919446 19.839386-33.918951 39.358782-49.918456 57.278228a36.158881 36.158881 0 0 0 22.399307 10.879663 71.677782 71.677782 0 0 0 20.799357-2.23993l18.559426-4.159872a17.279465 17.279465 0 0 1 15.039535 3.839882 21.439337 21.439337 0 0 1 7.679762 15.359524 25.599208 25.599208 0 0 1-7.359772 18.559426 41.598713 41.598713 0 0 1-24.639238 14.079565 76.157644 76.157644 0 0 1-29.759079 0 100.796882 100.796882 0 0 1-28.799109-11.519644 112.316525 112.316525 0 0 1-21.759327-16.319495l-6.399802 5.759822a11.839634 11.839634 0 0 1-8.639733 3.199901 11.199654 11.199654 0 0 1-8.639733-4.159872 12.159624 12.159624 0 0 1 0-17.279465l6.399802-5.439832a147.515436 147.515436 0 0 1-20.159376-31.99901 108.156654 108.156654 0 0 1-9.599703-34.238941 67.517911 67.517911 0 0 1 3.519891-31.99901 58.878178 58.878178 0 0 1 18.879416-25.279218 73.597723 73.597723 0 0 1 53.438347-16.639485 159.99505 159.99505 0 0 1 66.23795 20.159377c18.879416-21.759327 37.758832-43.518654 56.638248-63.99802a50.238446 50.238446 0 0 0-21.119346-11.839634 31.99901 31.99901 0 0 0-16.639486 0 52.798367 52.798367 0 0 0-13.759574 6.719792 99.836911 99.836911 0 0 1-12.479614 7.359772 29.119099 29.119099 0 0 1-12.799604 3.199901 22.079317 22.079317 0 0 1-14.079564-6.399802 20.479366 20.479366 0 0 1-7.999753-15.999505 27.839139 27.839139 0 0 1 7.999753-18.239436 63.99802 63.99802 0 0 1 21.119346-15.359524 78.717565 78.717565 0 0 1 28.799109-7.359773 79.997525 79.997525 0 0 1 33.598961 5.119842 95.99703 95.99703 0 0 1 35.198911 23.679267l16.959475-15.679515a12.159624 12.159624 0 0 1 17.279466 1.599951 12.159624 12.159624 0 0 1 2.879911 9.279713 10.879663 10.879663 0 0 1-3.839882 7.679762l-16.959475 14.399555a174.394605 174.394605 0 0 1 23.999258 38.398812 111.676545 111.676545 0 0 1 10.239683 35.198911 63.99802 63.99802 0 0 1-3.839881 30.079069 60.798119 60.798119 0 0 1-20.479367 24.639238z m-177.914496-21.759327a31.99901 31.99901 0 0 0-23.999257 9.279713A23.679267 23.679267 0 0 0 415.98713 415.99885a31.99901 31.99901 0 0 0 0 13.439584 42.238693 42.238693 0 0 0 4.479862 14.719545 60.158139 60.158139 0 0 0 10.239683 15.039535c16.319495-15.999505 31.99901-33.918951 48.638495-52.158387a75.517664 75.517664 0 0 0-31.35903-9.599703z m151.035328-63.99802a67.517911 67.517911 0 0 0-9.919693-14.079564c-17.919446 18.239436-35.838891 38.078822-53.758337 58.558188l14.719544 6.399802a69.757842 69.757842 0 0 0 15.679515 4.479862 40.958733 40.958733 0 0 0 15.679515 0 31.99901 31.99901 0 0 0 14.719545-8.639733 29.439089 29.439089 0 0 0 8.639733-14.399555 38.718802 38.718802 0 0 0 0-15.679515 52.158386 52.158386 0 0 0-6.719793-16.639485zM471.025428 186.245958a575.982181 575.982181 0 0 1-57.598218-49.598466 467.185546 467.185546 0 0 1-46.718555-54.398317l-21.759327-29.759079a15.999505 15.999505 0 0 1 24.959228-20.159376l2.239931 3.199901 20.479366 27.839138a436.146507 436.146507 0 0 0 43.518654 50.558436A506.544329 506.544329 0 0 0 490.864814 160.00677h1.59995a15.999505 15.999505 0 0 1-21.439336 23.679267zM588.141804 649.271633a531.183567 531.183567 0 0 0-53.758336-46.398564 15.039535 15.039535 0 0 1-3.839882-2.879911 16.319495 16.319495 0 0 1 22.399307-23.359278 581.422012 581.422012 0 0 1 57.598218 49.598466 466.545566 466.545566 0 0 1 46.718555 54.398317l21.759327 30.079069a15.999505 15.999505 0 0 1-23.679268 21.759327 17.599456 17.599456 0 0 1-2.87991-3.839881l-21.439337-29.119099a430.066695 430.066695 0 0 0-42.878674-50.238446z"  horiz-adv-x="1024" />

    
    <glyph glyph-name="jiaoyi" unicode="&#59958;" d="M608.256 416.256c13.312-113.152 109.056-201.216 225.792-201.216 116.224 0 212.48 88.064 225.792 201.216h-0.512c0.512 5.12-0.512 10.752-3.072 15.36l-196.096 368.128c-1.536 7.168-6.656 13.824-13.312 17.408-2.56 1.024-4.608 2.048-7.168 2.56h-0.512c-1.024 0-2.56 0.512-3.584 0.512h-279.552v39.936c0 17.92-11.776 32.256-26.624 32.256s-26.624-14.336-26.624-32.256v-39.936H222.208c-5.12-0.512-10.24-2.56-13.824-6.144-2.048-1.536-4.096-4.096-5.12-6.144-1.536-2.56-2.56-5.12-3.584-8.192l-196.096-368.128c-2.048-4.096-3.072-8.704-3.072-13.824v-1.536h-0.512c13.312-113.152 109.056-201.216 225.792-201.216s212.48 88.064 225.792 201.216h-0.512c0.512 5.12-0.512 10.752-3.072 15.36l-178.688 335.36h233.472v-819.2h-278.528c-13.824 0-25.088-11.776-25.088-26.624 0-14.848 11.264-26.624 25.088-26.624h609.792c13.824 0 25.088 11.776 25.088 26.624 0 14.848-11.264 26.624-25.088 26.624h-278.528v819.2h234.496l-178.688-335.36c-2.048-4.096-3.072-8.704-3.072-13.824 0.512-0.512 0.512-1.024 0-1.536z m-381.952-147.968c-75.776 0-142.848 49.152-165.888 121.344h274.432c11.776 0 21.504 11.776 21.504 26.624s-9.728 26.624-21.504 26.624h-264.704l156.16 293.376 172.032-322.56c-14.336-83.968-87.04-145.408-172.032-145.408z m607.744 0c-75.776 0-142.848 49.152-165.888 121.344h276.992c12.288 0 22.016 11.776 22.016 26.624s-9.728 26.624-22.016 26.624h-266.752l156.16 293.376 171.52-322.56c-14.336-83.968-87.04-145.408-172.032-145.408z"  horiz-adv-x="1059" />

    
    <glyph glyph-name="icon-test" unicode="&#58898;" d="M313.9 390.2c-105.8 0-191.9 86.1-191.9 191.9S208.1 774 313.9 774s191.9-86.1 191.9-191.9-86.1-191.9-191.9-191.9z m0 346.7c-85.3 0-154.8-69.4-154.8-154.8s69.4-154.8 154.8-154.8 154.8 69.4 154.8 154.8-69.5 154.8-154.8 154.8zM710.1-6c-105.8 0-191.9 86.1-191.9 191.9s86.1 191.9 191.9 191.9S902 291.7 902 185.9 815.9-6 710.1-6z m0 346.7c-85.3 0-154.8-69.4-154.8-154.8s69.4-154.8 154.8-154.8 154.8 69.4 154.8 154.8-69.5 154.8-154.8 154.8zM710.1 111.6c-34.3 0-61.1 19.9-61.1 45.4 0 6.8 5.5 12.4 12.4 12.4 6.8 0 12.4-5.5 12.4-12.4 0-9.8 14.9-20.6 36.3-20.6s36.3 10.9 36.3 20.6c0 9.8-14.9 20.6-36.3 20.6-34.3 0-61.1 19.9-61.1 45.4s26.8 45.4 61.1 45.4 61.1-19.9 61.1-45.4c0-6.8-5.5-12.4-12.4-12.4s-12.4 5.5-12.4 12.4c0 9.8-14.9 20.6-36.3 20.6s-36.3-10.9-36.3-20.6c0-9.8 14.9-20.6 36.3-20.6 34.3 0 61.1-19.9 61.1-45.4 0-25.4-26.9-45.4-61.1-45.4zM710.1 74.5c-6.8 0-12.4 5.5-12.4 12.4V285c0 6.8 5.5 12.4 12.4 12.4s12.4-5.5 12.4-12.4v-198.1c0-6.9-5.6-12.4-12.4-12.4zM375.8 606.9H252c-6.8 0-12.4 5.5-12.4 12.4 0 6.8 5.5 12.4 12.4 12.4h123.8c6.8 0 12.4-5.5 12.4-12.4s-5.5-12.4-12.4-12.4zM388.2 557.3H239.6c-6.8 0-12.4 5.5-12.4 12.4 0 6.8 5.5 12.4 12.4 12.4h148.6c6.8 0 12.4-5.5 12.4-12.4 0-6.8-5.6-12.4-12.4-12.4zM313.9 606.9c-3.2 0-6.3 1.2-8.8 3.6L255.6 660c-4.8 4.8-4.8 12.7 0 17.5s12.7 4.8 17.5 0l40.8-40.8 40.8 40.8c4.8 4.8 12.7 4.8 17.5 0 4.8-4.8 4.8-12.7 0-17.5l-49.5-49.5c-2.5-2.4-5.6-3.6-8.8-3.6zM313.9 483c-6.8 0-12.4 5.5-12.4 12.4V619.2c0 6.8 5.5 12.4 12.4 12.4 6.8 0 12.4-5.5 12.4-12.4v-123.8c0-6.8-5.6-12.4-12.4-12.4zM833.9 365.4c-10.3 0-18.6 8.3-18.6 18.6 0 167.3-136.1 303.3-303.3 303.3-10.3 0-18.6 8.3-18.6 18.6s8.3 18.6 18.6 18.6c187.7 0 340.5-152.7 340.5-340.5 0-10.3-8.3-18.6-18.6-18.6zM512 43.5c-187.7 0-340.5 152.7-340.5 340.5 0 10.3 8.3 18.6 18.6 18.6s18.6-8.3 18.6-18.6c0-167.3 136.1-303.3 303.3-303.3 10.3 0 18.6-8.3 18.6-18.6s-8.3-18.6-18.6-18.6zM190.1 167.3c-10.3 0-18.6 8.3-18.6 18.6V384c0 10.3 8.3 18.6 18.6 18.6s18.6-8.3 18.6-18.6v-198.1c0-10.3-8.4-18.6-18.6-18.6zM833.9 365.4c-10.3 0-18.6 8.3-18.6 18.6V582.1c0 10.3 8.3 18.6 18.6 18.6s18.6-8.3 18.6-18.6V384c0-10.3-8.3-18.6-18.6-18.6z"  horiz-adv-x="1024" />

    
    <glyph glyph-name="fanhui" unicode="&#58952;" d="M716.288-46.08c-5.12 0-10.24 2.048-14.336 6.144l-409.088 409.6c-8.192 8.192-8.192 20.992 0 29.184l409.088 409.6c8.192 8.192 20.992 8.192 29.184 0 8.192-8.192 8.192-20.992 0-29.184L336.384 384l394.752-395.264c8.192-8.192 8.192-20.992 0-29.184-4.608-3.584-9.728-5.632-14.848-5.632z"  horiz-adv-x="1024" />

    
    <glyph glyph-name="ziyuan" unicode="&#58913;" d="M804.33279-128H219.66721a194.888526 194.888526 0 0 0-194.888526 194.888526v361.935835a194.888526 194.888526 0 0 0 194.888526 194.888526h584.66558a194.888526 194.888526 0 0 0 194.888526-194.888526v-361.935835a194.888526 194.888526 0 0 0-194.888526-194.888526z m-584.66558 696.030451a139.20609 139.20609 0 0 1-139.20609-139.20609v-361.935835a139.20609 139.20609 0 0 1 139.20609-139.20609h584.66558a139.20609 139.20609 0 0 1 139.20609 139.20609v361.935835a139.20609 139.20609 0 0 1-139.20609 139.20609zM866.001088 568.030451a27.841218 27.841218 0 0 0-26.866776 20.741708L773.289831 834.05329 195.166939 679.116911 215.491028 603.66721a27.841218 27.841218 0 1 0-53.733551-13.920609l-27.841218 102.873301a27.005982 27.005982 0 0 0 2.784122 21.02012 27.841218 27.841218 0 0 0 16.843937 13.085372L785.81838 895.025557a27.841218 27.841218 0 0 0 34.105492-19.628058L892.867863 603.66721a27.841218 27.841218 0 0 0-19.767265-34.105492 31.182164 31.182164 0 0 0-7.09951-1.531267zM964.419793 108.650353h-139.20609a132.245786 132.245786 0 0 0 0 264.491572h139.20609a27.841218 27.841218 0 0 0 0-55.682436h-139.20609a76.56335 76.56335 0 0 1 0-153.126699h139.20609a27.841218 27.841218 0 0 0 0-55.682437z"  horiz-adv-x="1024" />

    
    <glyph glyph-name="warning-line" unicode="&#59048;" d="M960.74-1.8600000000000136H63.26a30 30 0 0 0-25.98 45L486.02 820.38c10.74 18.6 41.28 18.6 51.96 0l448.74-777.24a30 30 0 0 0-25.98-45z m-845.52 60h793.56L512 745.38 115.22 58.139999999999986zM512 563.88a30 30 0 0 1-30-30v-240a30 30 0 0 1 60 0v240a30 30 0 0 1-30 30z m0-359.76a30 30 0 1 1 0-60 30 30 0 0 1 0 60z"  horiz-adv-x="1024" />

    
    <glyph glyph-name="duihao" unicode="&#58912;" d="M518.4 883.174c-272.154 0-492.774-220.62-492.774-492.774S246.246-102.37400000000002 518.4-102.37400000000002s492.774 220.62 492.774 492.774S790.554 883.174 518.4 883.174z m241.1-370.892L483.483 183.34699999999998a43.418 43.418 0 0 0-61.172-5.35l-3.878 3.251a44.493 44.493 0 0 0-6.451 6.72l-121.92 118.58a43.405 43.405 0 0 0-5.35 61.158l3.263 3.89a43.405 43.405 0 0 0 61.159 5.351l97.37-94.707L689.1 571.354a43.405 43.405 0 0 0 61.158 5.35l3.891-3.251a43.43 43.43 0 0 0 5.35-61.171z"  horiz-adv-x="1024" />

    
    <glyph glyph-name="tubiao1" unicode="&#58935;" d="M274.432 326.144v-169.472a29.696 29.696 0 0 1 59.904 0v169.472a29.696 29.696 0 0 1-59.904 0zM236.544 489.984L460.8 646.656l133.12-145.408a29.184 29.184 0 0 1 7.168-5.12h4.096L614.4 486.4h10.24a28.672 28.672 0 0 1 8.192 3.584l235.52 164.352a29.696 29.696 0 0 1-34.304 51.2l-217.6-153.6-128.512 153.6a29.696 29.696 0 0 1-38.4 4.096 28.672 28.672 0 0 1-7.68-3.072L204.8 537.6a29.696 29.696 0 0 1 34.304-51.2zM438.272 441.344v-284.672a29.696 29.696 0 1 1 59.904 0V441.344a29.696 29.696 0 0 1-59.904 0zM764.416 441.344v-284.672a29.696 29.696 0 1 1 59.904 0V441.344a29.696 29.696 0 0 1-59.904 0zM602.112 326.144v-169.472a29.696 29.696 0 0 1 59.904 0v169.472a29.696 29.696 0 0 1-59.904 0zM930.304 54.784H137.728V687.104a29.696 29.696 0 1 1-59.904 0V25.6a30.208 30.208 0 0 1 29.696-29.696h822.784a29.696 29.696 0 0 1 0 59.904z"  horiz-adv-x="1024" />

    
    <glyph glyph-name="xinxi" unicode="&#58930;" d="M394.532977 395.806029c0-34.059998-27.639998-61.594996-61.749996-61.594996-34.061998 0-61.718996 27.535998-61.718997 61.594996 0 34.049998 27.651998 61.701996 61.717997 61.701997 34.109998 0.005 61.750996-27.645998 61.750996-61.701997m0 0z m707.185958 34.165998C1101.718935 686.924012 861.73595 896 566.685967 896 271.622984 896 31.640998 686.924012 31.640998 429.972027c0-152.644991 85.986995-295.614983 230.199987-382.729977v-146.903992c0-10.465999 5.736-20.009999 14.898999-24.839998 4.215-2.36 8.646999-3.498 13.426999-3.498a28.007998 28.007998 0 0 1 15.626999 4.725l67.779996 44.736997a21.579999 21.579999 0 0 1 3.255 2.481l76.659995 51.030997c38.221998-7.2 76.321996-10.913999 113.301994-10.913999 294.946983 0.112 534.927969 209.077988 534.927968 465.911972M304.101982 88.150047C168.89099 164.357043 88.235995 292.170035 88.235995 430.082027c0 225.709987 214.633987 409.376976 478.449972 409.376976 263.813985 0 478.447972-183.667989 478.447972-409.376976 0-225.700987-214.695987-409.369976-478.443972-409.369976-36.872998 0-75.084996 4.045-113.526994 12.025-7.306 1.685-15.063999 0.11-21.467998-4.16l-89.699995-59.795997c-1.238-0.67-3.035-2.25-3.035-2.25l-20.456999-13.487999V63.528049c-0.005 10.237999-5.575 19.571999-14.399999 24.621998m0 0zM638.729963 413.118028c0-34.059998-27.645998-61.827996-61.822997-61.827996-34.049998 0-61.700996 27.766998-61.700996 61.827996 0 34.055998 27.650998 61.602996 61.700996 61.602997 34.170998-0.012 61.822996-27.552998 61.822997-61.602997m0 0z m241.341985 0c0-34.059998-27.656998-61.827996-61.718996-61.827996-34.054998 0-61.705996 27.766998-61.705996 61.827996 0 34.055998 27.650998 61.602996 61.705996 61.602997 34.061998-0.012 61.718996-27.552998 61.718996-61.602997m0 0z m0 0"  horiz-adv-x="1171" />

    
    <glyph glyph-name="zengsong" unicode="&#58948;" d="M781.2 34.9c-10.1 0-19 6.9-21.6 16.7-27.1 103.6-108 177.4-201.2 183.7-5.9 0.4-11.4 3.1-15.3 7.5-3.9 4.5-5.8 10.3-5.4 16.2 0.7 11.6 10.5 20.8 23.6 20.8h0.1c112.3-7.7 209.3-94.8 241.3-216.9 1.5-5.8 0.7-11.9-2.3-17s-8-8.8-13.7-10.3c-1.8-0.5-3.7-0.7-5.5-0.7z m-262 305M519.2 230.4c-138.8 0-251.8 112.9-251.8 251.8C267.4 621 380.3 734 519.2 734 658 734 771 621.1 771 482.2c0-138.8-112.9-251.8-251.8-251.8z m0 459c-114.2 0-207.1-93-207.1-207.2C312.1 368 405 275 519.3 275c114.3 0 207.2 93 207.2 207.2 0 114.3-93 207.2-207.3 207.2zM519.2 339.9c-30.4-0.1-60 9.6-84.5 27.7-6.1 4.5-7.4 13.1-2.9 19.2 2.6 3.5 6.7 5.6 11.1 5.6 2.9 0 5.7-0.9 8.1-2.7 30.7-22.5 70.4-28.4 106.3-15.8 28.8 10.2 52.3 31.3 65.7 58.7 1.5 3.3 4.3 5.8 7.8 7 3.4 1.2 7.2 1 10.4-0.6 3.3-1.6 5.8-4.4 7-7.9 1.2-3.5 1-7.2-0.6-10.5-24-49.2-73.7-80.4-128.4-80.7zM452.8 142.4c12.3-0.6 21.9-10.7 21.9-23s-9.6-22.4-21.9-23H243.5c-12.7 0-23 10.3-23 23s10.3 23 23 23h209.3z m-209.3 0M468.7 134.9c8.3-9.1 7.9-23-0.7-31.7-8.7-8.7-22.6-9-31.7-0.7L373 165.7c-9 9-9 23.5 0 32.5s23.5 9 32.5 0l63.2-63.3zM405.5 40.7c-9-9-23.5-9-32.5 0s-9 23.5 0 32.5l63.2 63.2c9.1 8.3 23 7.9 31.7-0.7 8.7-8.7 9-22.6 0.7-31.7l-63.1-63.3z"  horiz-adv-x="1024" />

    
    <glyph glyph-name="home" unicode="&#58918;" d="M1014.016 407.50592l-494.08 453.99552c-10.37824 9.5488-25.856 10.01472-36.19328 0l-468.48-453.99552c-23.74656-23.0144 12.4928-59.19232 36.20352-36.21888l450.85184 436.9408 475.4944-436.9408c24.26368-22.28736 60.56448 13.82912 36.20352 36.21888zM836.864 365.9008v-376.704c0-9.84576 4.57728-35.44576-11.1104-35.44576H200.48896c-15.94368 0-12.18048 19.712-12.18048 30.40256v91.67872 236.5696 53.49376c0 33.01888-51.2 33.01888-51.2 0v-376.704c0-23.06048-2.01728-48.45568 15.92832-66.40128 17.47968-17.47456 37.54496-20.24448 60.44672-20.24448H809.94304c20.52608 0 42.03008 0.08704 57.87648 15.9232 19.93216 19.93728 20.24448 42.50112 20.24448 68.13696v218.9568 160.3328c0 33.024-51.2 33.024-51.2 0.00512zM719.68256 778.51136h145.66912v-141.65504c0-33.01888 51.2-33.01888 51.2 0V804.11136c0 13.95712-11.64288 25.6-25.6 25.6h-171.26912c-33.01888 0-33.01888-51.2 0-51.2z"  horiz-adv-x="1024" />

    
    <glyph glyph-name="jiantou_zuoyouqiehuan_o" unicode="&#60309;" d="M170.666667 503.466667L349.866667 682.666667l29.866666-29.866667-149.333333-149.333333h669.866667v-42.666667H128l42.666667 42.666667z m682.666666-213.333334l-179.2-179.2-29.866666 29.866667 149.333333 149.333333H132.266667v42.666667H896l-42.666667-42.666667z"  horiz-adv-x="1024" />

    
    <glyph glyph-name="xin1" unicode="&#58892;" d="M769.11432633 754.78849673a242.19736223 242.19736223 0 0 1-192.64882566-95.17358974A242.17793855 242.17793855 0 0 1 383.816675 754.78849673C249.83556877 754.78849673 141.21142578 688.99246906 141.21142578 512.15411309s435.25407488-498.93297584 435.25407489-498.93297582 435.24436342 322.18202386 435.24436341 498.93297582S903.10514405 754.78849673 769.11432633 754.78849673z"  horiz-adv-x="1202" />

    
    <glyph glyph-name="maichu" unicode="&#58885;" d="M637.3479223 647.05892567c0-27.13009722 0.11447344-54.37467038-0.11447344-81.50476758-0.11447344-5.7236504 1.37367649-7.32627138 7.21179791-7.32627137 28.61824721 0.34341789 57.35096783 0.11447344 85.969215 0.22894688 8.24205402 0 15.2249075-1.94604131 19.00251418-10.07362436 3.77760915-8.12758306-0.22894691-13.96570447-5.26575663-19.80382584-53.91677658-62.61672444-107.83355561-125.3479223-161.75033219-188.07911775-10.64598668-12.47755453-21.06302891-12.47755453-31.70901806-0.11447345C497.0040394 402.77356977 443.31620727 465.2758207 389.51390415 527.7780717c-5.15128564 6.06706831-9.95915089 12.01966318-6.06706833 20.60513754 3.89208258 8.47100095 11.21835393 10.18809533 19.80382587 10.07362436 27.70246201-0.22894691 55.51939997 0.22894691 83.33633544-0.22894688 7.21179791-0.11447344 9.27231262 1.48814997 9.15783923 9.04336576-0.34341789 52.54310254-0.22894691 105.08620263-0.22894691 157.74377862 0 20.71961103 11.10388048 32.05243598 31.48007115 32.05243595 26.9011528 0.11447344 53.80230313 0.11447344 80.58898494-0.11447346 18.20120495-0.11447344 29.64850332-11.79071874 29.76297676-30.10639469v-79.78767323z m0 0M337.88658675 202.90373326999998c10.87493358 5.15128564 22.55117885 6.41048621 34.45636857 6.41048866h420.11586361c17.62884016 0 27.24457069 7.66968925 31.48007362 24.95510906 2.06051476 8.24205402 4.12102705 16.59858402 6.1815393 24.8406405 25.87089419 103.48358171 51.62731738 207.08163437 77.61268751 310.56521361 1.25920306 5.03681217 1.83156785 9.84467744 0.5723648 14.88148961-3.31971781 13.16439277-14.42359582 21.8643406-27.58799106 21.97881408-14.19465136 0-24.3827467-8.69994784-28.27482679-24.38274669-25.52747629-102.33885211-51.16942604-204.79217517-76.46795547-307.24549827-1.71709439-6.98285349-4.46444736-9.04336576-11.79071871-9.04336826-120.88347492 0.22894691-241.65247643 0.22894691-362.53595137 0-8.01310961 0-11.56177181 1.83156785-14.0801779 9.95915094-20.37619066 66.508807-41.21027515 132.78866467-61.92988619 199.18299818-23.12354367 74.29296971-46.3615608 148.47146597-69.5995779 222.76443575-4.57891839 14.76701615-14.42359582 22.20775849-29.30508298 22.20775849-27.47351761 0.11447344-54.94703518 0.11447344-82.42055279 0-17.28542225-0.11447344-29.76297677-12.24861009-29.64850328-28.50377375 0.11447344-16.1406902 12.70650143-28.16035582 29.99192364-28.27482931 17.17094882-0.11447344 34.34189515-0.45789133 51.39837054 0.22894691 8.35652748 0.34341789 12.01966318-2.06051476 14.6525427-10.41704224 39.72212768-128.32421975 79.9021442-256.53396604 120.19663667-384.62923884 2.06051476-6.52495969 0.11447344-8.01310961-5.60917698-9.95914846-40.75238379-13.85123104-68.22590141-49.56680265-68.79826371-88.6020921-0.68683824-48.42207308 32.39585634-88.48761866 81.2758207-98.6757164 4.69339182-0.91578272 8.35652748-1.71709439 10.76046014-7.21179788 14.30912237-33.19716555 39.83659866-51.97073525 75.89559064-52.88652045 36.97477465-1.03025616 63.41803612 17.17094882 79.55872633 50.25364089 2.28945917 4.69339182 4.57891839 6.41048621 9.730204 6.29601524 36.63135679-0.22894691 73.26271111-0.22894691 109.8940679 0 4.57891839 0 6.98285349-0.91578272 9.27231263-5.609177 15.33938095-32.62480075 41.09580169-50.82600569 77.38374061-50.94047913 36.28793641-0.11447344 62.04435966 18.20120495 77.61268502 50.59706125 2.40393265 5.03681217 5.15128564 6.06706831 9.95915093 5.95259488 17.39989326-0.22894691 34.91426242-0.11447344 52.31415318-0.11447347 17.85778705 0.11447344 30.67876191 12.13413664 30.56428844 28.50377372-0.11447344 16.59858402-12.70650143 28.16035582-30.79323291 28.27482683-17.74331361 0.11447344-35.48662718 0.11447344-53.2299408-0.11447095-4.34997392 0-6.52495969 1.03025616-8.58547192 5.38023006-15.33938095 32.62480075-40.86685727 51.0549526-77.15479369 51.169426-36.63135679 0.22894691-62.50225101-18.20120495-78.18505231-51.05495256-1.94604131-4.12102705-4.00655357-5.49470352-8.47100093-5.4947035-37.20372156 0.11447344-74.40744318 0.22894691-111.72563574 0-4.57891839 0-6.63943311 1.37367649-8.35652749 5.60917447-4.34997392 10.76046014-11.10388048 20.14724624-19.57488147 28.04588237-41.43922203 38.80634253-107.60460871 27.24457069-133.81892324-23.46696152-1.71709439-3.20524434-1.60262095-8.12758306-8.3565275-5.72365045-16.25516364 5.95259488-28.04588238 19.57488144-29.190612 35.60110066-1.03025616 16.25516364 8.24205402 30.90770635 24.61169365 38.69186907z m373.29641147-75.78111723c16.713055-0.22894691 30.90770635-14.76701615 30.56428845-31.3656001-0.34341789-17.39989326-14.53806927-31.36559771-31.82349149-31.02217989-16.82752846 0.34341789-30.90770635 14.76701615-30.56428602 31.36560024 0.22894691 17.39989326 14.53806927 31.25112672 31.82348906 31.02217975z m-283.89301017 0c16.713055-0.11447344 30.90770635-14.65254271 30.67876192-31.25112669-0.22894691-17.39989326-14.30912237-31.36559771-31.70901806-31.1366533-16.713055 0.22894691-30.90770635 14.65254271-30.67875947 31.25112674 0.22894691 17.39989326 14.42359582 31.25112672 31.70901561 31.13665325z m0 0"  horiz-adv-x="1024" />

    
    <glyph glyph-name="tixian1" unicode="&#58882;" d="M891.392 839.68H132.608c-41.472 0-75.776-33.28-75.776-73.728v-215.04c0-40.448 33.792-73.728 75.776-73.728h37.376v-472.576c0-41.984 34.304-76.288 76.8-76.288H775.68c42.496 0 76.8 34.304 76.8 76.288V477.696h39.424c41.472 0 75.776 33.28 75.776 73.728v215.04c-0.512 39.936-34.304 73.216-76.288 73.216zM775.68-20.991999999999962H246.784c-14.336 0-26.112 11.776-26.112 26.112V653.8240000000001h581.632v-649.216c-0.512-14.336-12.288-25.6-26.624-25.6z m140.8 571.904c0-12.8-11.264-23.04-25.088-23.04h-39.424V653.8240000000001h9.216c11.264 0 19.968 9.216 19.968 19.968 0 11.264-9.216 19.968-19.968 19.968h-701.44c-11.264 0-19.968-9.216-19.968-19.968 0-11.264 9.216-19.968 19.968-19.968h9.216v-125.952h-37.376c-13.824 0-25.088 10.24-25.088 23.04v215.04c0 12.8 11.264 23.04 25.088 23.04H890.88c13.824 0 25.088-10.24 25.088-23.04v-215.04z m0 0M646.144 464.896c-8.704 7.168-21.504 6.144-28.672-2.56l-104.448-122.88-104.448 122.88c-7.168 8.704-19.968 9.728-28.672 2.56-8.704-7.168-9.728-19.968-2.56-28.672l90.112-105.984h-56.32c-11.264 0-19.968-9.216-19.968-19.968 0-11.264 9.216-19.968 19.968-19.968h80.384v-32.256h-80.384c-11.264 0-19.968-9.216-19.968-19.968 0-11.264 9.216-19.968 19.968-19.968h80.384v-69.632c0-11.264 9.216-19.968 19.968-19.968h3.072c11.264 0 19.968 9.216 19.968 19.968v68.608h75.776c11.264 0 19.968 9.216 19.968 19.968 0 11.264-9.216 19.968-19.968 19.968h-75.776V289.28h75.776c11.264 0 19.968 9.216 19.968 19.968 0 11.264-9.216 19.968-19.968 19.968H558.08L648.192 435.2c7.68 9.728 6.656 22.528-2.048 29.696z m0 0"  horiz-adv-x="1024" />

    


  </font>
</defs>
</svg>
